<svg id="Layer_1" data-name="Layer 1" xmlns="http://www.w3.org/2000/svg" viewBox="0 0 678.55 432.11"><title>code</title><path d="M320.26,451a4.14,4.14,0,0,0-2.86-1.14q-4.5,0-4.51,9.13v6.65h6.3v5.89h-6.3v37.2h-4.27v-37.2H304v-5.89h4.59v-7q0-6.78,2.44-10.71t6.08-3.94a5.58,5.58,0,0,1,3.12.76Z" transform="translate(-148.28 -87.72)"/><path d="M328.1,508.72h-4.3V444.93h4.3Z" transform="translate(-148.28 -87.72)"/><path d="M358.4,488.9h-19q.1,7.2,2.42,11.11a7.08,7.08,0,0,0,6.34,3.92q4.55,0,8.34-4.8v6.48a11.72,11.72,0,0,1-9.36,4.12q-5.69,0-8.94-5.87T335,487.35q0-10.07,3.55-16.4t8.82-6.33q5.28,0,8.16,5.47t2.89,15.19ZM354,483.05q0-6-1.8-9.3t-4.91-3.32q-3,0-5.17,3.49a21,21,0,0,0-2.62,9.13Z" transform="translate(-148.28 -87.72)"/><path d="M384.52,465.63l-9,21.8,8.86,21.29h-5l-5.27-14c-.33-.87-.73-2-1.18-3.28h-.11c-.08.25-.49,1.35-1.23,3.28l-5.37,14h-5l9.15-21.12-8.76-22h5l5.19,14.73c.39,1.09.76,2.22,1.13,3.37h.11l6.71-18.1Z" transform="translate(-148.28 -87.72)"/><path d="M403.3,487.43H389V482H403.3Z" transform="translate(-148.28 -87.72)"/><path d="M434,508.72h-4.31V501.4h-.1q-3,8.34-9.23,8.33-5.07,0-8.09-5.78t-3-15.76q0-10.69,3.35-17.13t8.95-6.44q5.53,0,8.05,7h.1V444.93H434Zm-4.31-19.48v-6.35a17,17,0,0,0-2.15-8.84q-2.14-3.62-5.45-3.62c-2.62,0-4.69,1.54-6.19,4.63s-2.26,7.35-2.26,12.79q0,7.45,2.17,11.76t5.81,4.32c2.39,0,4.34-1.39,5.83-4.17A22,22,0,0,0,429.65,489.24Z" transform="translate(-148.28 -87.72)"/><path d="M444.87,454.69a2.33,2.33,0,0,1-2-1.26,5.82,5.82,0,0,1-.81-3.2,5.94,5.94,0,0,1,.81-3.22,2.32,2.32,0,0,1,2-1.28,2.36,2.36,0,0,1,2,1.28,6.54,6.54,0,0,1,0,6.38A2.36,2.36,0,0,1,444.87,454.69Zm2.09,54h-4.3V465.63H447Z" transform="translate(-148.28 -87.72)"/><path d="M469.68,472.62a4,4,0,0,0-3.26-1.39c-1.83,0-3.37,1.39-4.6,4.16S460,482,460,486.76v22h-4.3V465.63H460v8.88h.11a17.76,17.76,0,0,1,2.8-7.09q1.89-2.55,4.23-2.55a4.7,4.7,0,0,1,2.57.59Z" transform="translate(-148.28 -87.72)"/><path d="M495.22,488.9h-19q.11,7.2,2.41,11.11a7.09,7.09,0,0,0,6.35,3.92q4.53,0,8.34-4.8v6.48a11.72,11.72,0,0,1-9.36,4.12q-5.7,0-8.95-5.87t-3.25-16.51q0-10.07,3.55-16.4t8.83-6.33q5.26,0,8.16,5.47t2.88,15.19Zm-4.4-5.85q0-6-1.8-9.3t-4.92-3.32q-3,0-5.17,3.49a21.11,21.11,0,0,0-2.62,9.13Z" transform="translate(-148.28 -87.72)"/><path d="M520,506.75a10.2,10.2,0,0,1-7.34,3q-5.75,0-9.27-6t-3.53-15.55q0-10.65,3.8-17.11t10.15-6.46a9.83,9.83,0,0,1,6.24,2.11v7.07q-3-3.37-6.4-3.37-4.11,0-6.75,4.73T504.3,487.6q0,7.57,2.47,11.95c1.66,2.92,3.87,4.38,6.65,4.38q3.52,0,6.61-3.75Z" transform="translate(-148.28 -87.72)"/><path d="M539,508.3a5.81,5.81,0,0,1-4,1.35q-7.05,0-7.05-12.63v-25.5h-4.62v-5.89h4.62V455.11l4.3-2.23v12.75H539v5.89h-6.76V495.8c0,2.89.3,5,.92,6.19a3.14,3.14,0,0,0,3,1.85,3.5,3.5,0,0,0,2.8-1.43Z" transform="translate(-148.28 -87.72)"/><path d="M546.94,454.69a2.35,2.35,0,0,1-2-1.26,5.82,5.82,0,0,1-.81-3.2A5.94,5.94,0,0,1,545,447a2.33,2.33,0,0,1,2-1.28,2.36,2.36,0,0,1,2,1.28,6.61,6.61,0,0,1,0,6.38A2.37,2.37,0,0,1,546.94,454.69Zm2.1,54h-4.3V465.63H549Z" transform="translate(-148.28 -87.72)"/><path d="M569,509.73q-6,0-9.51-6t-3.55-16q0-10.86,3.7-17t10-6.1q6,0,9.38,5.94T582.35,487q0,10.31-3.64,16.52T569,509.73Zm.32-39.3c-2.77,0-4.95,1.51-6.56,4.52s-2.41,7.18-2.41,12.48q0,7.67,2.44,12.08c1.62,2.94,3.8,4.42,6.53,4.42s4.91-1.45,6.41-4.34,2.24-7,2.24-12.33-.75-9.54-2.24-12.45S572.07,470.43,569.29,470.43Z" transform="translate(-148.28 -87.72)"/><path d="M611.51,508.72h-4.3V484.15q0-13.72-6.24-13.72-3.22,0-5.34,3.89a20.44,20.44,0,0,0-2.11,9.83v24.57h-4.3V465.63h4.3v7.16h.1q3-8.18,8.82-8.17,4.39,0,6.74,4.57t2.33,13.19Z" transform="translate(-148.28 -87.72)"/><path d="M621.11,474.05a2.46,2.46,0,0,1-2.06-1.39,6.22,6.22,0,0,1-.85-3.33,6,6,0,0,1,.85-3.28,2.44,2.44,0,0,1,2.06-1.34,2.48,2.48,0,0,1,2.1,1.34,5.92,5.92,0,0,1,.86,3.28,6.14,6.14,0,0,1-.86,3.33A2.5,2.5,0,0,1,621.11,474.05Zm0,35.6a2.44,2.44,0,0,1-2.06-1.39,6.21,6.21,0,0,1-.85-3.32,6.34,6.34,0,0,1,.85-3.35,2.44,2.44,0,0,1,2.06-1.41,2.49,2.49,0,0,1,2.1,1.41,6.26,6.26,0,0,1,.86,3.35,6.13,6.13,0,0,1-.86,3.32A2.48,2.48,0,0,1,621.11,509.65Z" transform="translate(-148.28 -87.72)"/><path d="M664.28,506.75a10.2,10.2,0,0,1-7.34,3q-5.75,0-9.28-6t-3.52-15.55q0-10.65,3.8-17.11t10.15-6.46a9.83,9.83,0,0,1,6.24,2.11v7.07q-3-3.37-6.4-3.37-4.11,0-6.75,4.73t-2.64,12.44q0,7.57,2.48,11.95t6.65,4.38c2.34,0,4.55-1.25,6.61-3.75Z" transform="translate(-148.28 -87.72)"/><path d="M682,509.73q-6,0-9.51-6t-3.55-16q0-10.86,3.7-17t10-6.1q6,0,9.37,5.94T695.38,487q0,10.31-3.63,16.52T682,509.73Zm.31-39.3q-4.14,0-6.55,4.52t-2.42,12.48q0,7.67,2.44,12.08c1.63,2.94,3.81,4.42,6.53,4.42s4.92-1.45,6.42-4.34,2.24-7,2.24-12.33-.75-9.54-2.24-12.45S685.1,470.43,682.32,470.43Z" transform="translate(-148.28 -87.72)"/><path d="M706.56,508.72h-4.3V444.93h4.3Z" transform="translate(-148.28 -87.72)"/><path d="M737,508.72h-4.3v-6.81h-.11q-2.67,7.81-8.28,7.82-9.6,0-9.6-18.34V465.63H719v24.66q0,13.63,6.51,13.64c2.09,0,3.82-1.25,5.18-3.73a20.34,20.34,0,0,0,2-9.74V465.63H737Z" transform="translate(-148.28 -87.72)"/><path d="M783.8,508.72h-4.31V484q0-7.16-1.37-10.35a4.73,4.73,0,0,0-4.63-3.2q-2.76,0-4.68,4a22.23,22.23,0,0,0-1.93,9.68v24.57h-4.3V483.14q0-12.7-6.11-12.71-2.84,0-4.67,3.81a22.83,22.83,0,0,0-1.84,9.91v24.57h-4.3V465.63H750v6.82h.11q2.85-7.83,8.34-7.83a6.11,6.11,0,0,1,4.8,2.46,14,14,0,0,1,2.8,6.46q3-8.91,8.92-8.92,8.87,0,8.87,17.55Z" transform="translate(-148.28 -87.72)"/><path d="M814.22,508.72h-4.3V484.15q0-13.72-6.24-13.72c-2.16,0-3.93,1.3-5.34,3.89a20.44,20.44,0,0,0-2.11,9.83v24.57h-4.3V465.63h4.3v7.16h.1q3-8.18,8.81-8.17,4.41,0,6.74,4.57t2.34,13.19Z" transform="translate(-148.28 -87.72)"/><path d="M826.26,499.13l-4.2,20.7H819l3.07-20.7Zm-2.36-25.08a2.46,2.46,0,0,1-2.09-1.39,6.22,6.22,0,0,1-.85-3.33,6,6,0,0,1,.85-3.28,2.28,2.28,0,0,1,4.16,0,6,6,0,0,1,.86,3.28,6.23,6.23,0,0,1-.86,3.33A2.48,2.48,0,0,1,823.9,474.05Z" transform="translate(-148.28 -87.72)"/><path d="M414.55,183l-8.05,43.09H402l-5.53-30.85a31.19,31.19,0,0,1-.42-4H396a27.71,27.71,0,0,1-.55,3.91l-6,30.93h-4.3L377,183h4.51l5.56,32.4a31.66,31.66,0,0,1,.36,3.87h.21a28.08,28.08,0,0,1,.48-3.95L394.31,183h3.93l5.56,32.49a33,33,0,0,1,.39,3.87h.21a28.83,28.83,0,0,1,.45-3.87L410.3,183Z" transform="translate(-148.28 -87.72)"/><path d="M421.74,172.08a2.33,2.33,0,0,1-2-1.27,5.79,5.79,0,0,1-.81-3.19,5.92,5.92,0,0,1,.81-3.22,2.33,2.33,0,0,1,2-1.29,2.37,2.37,0,0,1,2,1.29,5.83,5.83,0,0,1,.82,3.22,5.77,5.77,0,0,1-.82,3.15A2.38,2.38,0,0,1,421.74,172.08Zm2.1,54h-4.3V183h4.3Z" transform="translate(-148.28 -87.72)"/><path d="M455.47,226.11h-4.3v-7.32h-.11q-3,8.33-9.23,8.33-5.07,0-8.09-5.79t-3-15.76q0-10.68,3.36-17.12c2.23-4.3,5.22-6.44,8.94-6.44s6.37,2.33,8.05,7h.11V162.31h4.3Zm-4.3-19.48v-6.36a17,17,0,0,0-2.15-8.83c-1.44-2.42-3.26-3.62-5.46-3.62-2.62,0-4.69,1.54-6.19,4.63s-2.25,7.35-2.25,12.79q0,7.44,2.16,11.76c1.44,2.88,3.38,4.31,5.81,4.31s4.34-1.39,5.83-4.16A22,22,0,0,0,451.17,206.63Z" transform="translate(-148.28 -87.72)"/><path d="M476.63,225.69a5.81,5.81,0,0,1-4,1.35q-7,0-7.06-12.63v-25.5H461V183h4.61V172.5l4.31-2.23V183h6.76v5.89h-6.76v24.28a15.11,15.11,0,0,0,.91,6.19,3.17,3.17,0,0,0,3.05,1.85,3.53,3.53,0,0,0,2.8-1.43Z" transform="translate(-148.28 -87.72)"/><path d="M504.67,226.11h-4.3V201.28q0-13.47-6.24-13.46c-2.1,0-3.87,1.29-5.3,3.89a20.46,20.46,0,0,0-2.15,10v24.41h-4.3v-63.8h4.3v27.86h.1q3.11-8.16,8.81-8.16,9.07,0,9.08,17.55Z" transform="translate(-148.28 -87.72)"/><path d="M514.27,191.44a2.45,2.45,0,0,1-2.06-1.39,6.25,6.25,0,0,1-.85-3.33,6,6,0,0,1,.85-3.28,2.44,2.44,0,0,1,2.06-1.35,2.49,2.49,0,0,1,2.1,1.35,6,6,0,0,1,.86,3.28,6.25,6.25,0,0,1-.86,3.33A2.5,2.5,0,0,1,514.27,191.44Zm0,35.6a2.45,2.45,0,0,1-2.06-1.39,7,7,0,0,1,0-6.67,2.43,2.43,0,0,1,2.06-1.41,2.49,2.49,0,0,1,2.1,1.41,6.9,6.9,0,0,1,0,6.67A2.5,2.5,0,0,1,514.27,227Z" transform="translate(-148.28 -87.72)"/><path d="M546,226.11H524.68v-6.06h8.5V173.17l-8.71,4.17v-6.57l13-6.35v55.63H546Z" transform="translate(-148.28 -87.72)"/><path d="M563.13,227.12q-5.6,0-8.72-7.7t-3.14-22.26q0-16,3.27-24.2t9.43-8.2q11.81,0,11.8,30.93,0,15.31-3.33,23.37T563.13,227.12Zm.6-56.52q-8.06,0-8.05,26.22,0,24.5,7.89,24.49t7.79-24.91Q571.36,170.6,563.73,170.6Z" transform="translate(-148.28 -87.72)"/><path d="M592.08,227.12q-5.58,0-8.72-7.7t-3.13-22.26q0-16,3.26-24.2t9.43-8.2q11.8,0,11.8,30.93,0,15.31-3.33,23.37T592.08,227.12Zm.61-56.52q-8.06,0-8.06,26.22,0,24.5,7.9,24.49t7.79-24.91Q600.32,170.6,592.69,170.6Z" transform="translate(-148.28 -87.72)"/><path d="M617.52,196c-2.58,0-4.65-1.37-6.19-4.1s-2.3-6.39-2.3-11q0-7.5,2.43-11.81c1.63-2.87,3.82-4.31,6.59-4.31s4.75,1.33,6.23,4,2.21,6.41,2.21,11.23-.82,8.69-2.48,11.6S620.2,196,617.52,196Zm.37-26.55q-2.49,0-3.93,3a18.74,18.74,0,0,0-1.45,8.14,18.14,18.14,0,0,0,1.42,7.93q1.41,2.84,3.86,2.84t3.85-2.94a19.51,19.51,0,0,0,1.39-8.17,18.5,18.5,0,0,0-1.38-7.93C620.74,170.42,619.48,169.47,617.89,169.47Zm24.81-3.71-24.13,60.77h-3.75l24.1-60.77ZM639.92,227q-3.88,0-6.19-4.13T631.42,212q0-7.49,2.47-11.84t6.56-4.36q4,0,6.21,4t2.23,11.32q0,7.2-2.48,11.55C644.76,225.58,642.6,227,639.92,227Zm.37-26.52c-1.68,0-3,1-3.95,2.95a19.08,19.08,0,0,0-1.43,8.16,17.76,17.76,0,0,0,1.42,7.85c.94,1.9,2.23,2.84,3.85,2.84s2.93-1,3.86-3a19.69,19.69,0,0,0,1.39-8.15,18.19,18.19,0,0,0-1.38-7.91Q642.67,200.52,640.29,200.52Z" transform="translate(-148.28 -87.72)"/><path d="M659.17,216.52l-4.2,20.7h-3.06l3.06-20.7Zm-2.36-25.08a2.45,2.45,0,0,1-2.08-1.39,6.25,6.25,0,0,1-.86-3.33,6,6,0,0,1,.86-3.28,2.27,2.27,0,0,1,4.15,0,5.92,5.92,0,0,1,.87,3.28,6.17,6.17,0,0,1-.87,3.33A2.46,2.46,0,0,1,656.81,191.44Z" transform="translate(-148.28 -87.72)"/><path d="M302.82,340.74h-4.3V315.91q0-13.47-6.24-13.47c-2.1,0-3.86,1.3-5.3,3.9a20.54,20.54,0,0,0-2.15,10v24.41h-4.3v-63.8h4.3V304.8h.11q3.09-8.16,8.81-8.16,9.08,0,9.07,17.55Z" transform="translate(-148.28 -87.72)"/><path d="M332.51,320.92h-19q.1,7.2,2.41,11.11a7.08,7.08,0,0,0,6.35,3.91q4.53,0,8.34-4.8v6.48a11.73,11.73,0,0,1-9.36,4.13q-5.7,0-9-5.87t-3.25-16.52q0-10,3.55-16.39t8.83-6.33q5.26,0,8.16,5.47t2.88,15.19Zm-4.4-5.85q0-6-1.8-9.3t-4.92-3.33q-3,0-5.17,3.5a21.11,21.11,0,0,0-2.62,9.13Z" transform="translate(-148.28 -87.72)"/><path d="M341.22,286.71a2.35,2.35,0,0,1-2-1.27,5.8,5.8,0,0,1-.81-3.2,5.88,5.88,0,0,1,.81-3.21,2.33,2.33,0,0,1,2-1.29,2.39,2.39,0,0,1,2,1.29,6.6,6.6,0,0,1,0,6.37A2.39,2.39,0,0,1,341.22,286.71Zm2.1,54H339V297.65h4.3Z" transform="translate(-148.28 -87.72)"/><path d="M375,337.29Q375,361,360.78,361a13.36,13.36,0,0,1-8.7-3v-6.9q4.53,4,8.65,4,9.91,0,9.92-16.92V333.5h-.11q-3.07,8.25-9.23,8.25-5,0-8.07-5.75t-3.05-15.42q0-11,3.29-17.46t9-6.48q5.43,0,8.05,7h.11v-6H375Zm-4.3-16V314.9a17,17,0,0,0-2.17-8.79q-2.16-3.67-5.39-3.67-4,0-6.24,4.65t-2.26,13q0,7.2,2.17,11.51t5.73,4.31q3.61,0,5.89-4.12A21.82,21.82,0,0,0,370.65,321.25Z" transform="translate(-148.28 -87.72)"/><path d="M406,340.74h-4.3V315.91q0-13.47-6.25-13.47c-2.09,0-3.86,1.3-5.29,3.9a20.43,20.43,0,0,0-2.15,10v24.41h-4.31v-63.8H388V304.8h.1q3.09-8.16,8.81-8.16,9.08,0,9.08,17.55Z" transform="translate(-148.28 -87.72)"/><path d="M426.51,340.32a5.82,5.82,0,0,1-4,1.34q-7.06,0-7.06-12.62v-25.5h-4.61v-5.89h4.61V287.13l4.3-2.23v12.75h6.77v5.89h-6.77v24.28a15.07,15.07,0,0,0,.92,6.19,3.15,3.15,0,0,0,3,1.85,3.55,3.55,0,0,0,2.81-1.43Z" transform="translate(-148.28 -87.72)"/><path d="M435.12,302.19a2.46,2.46,0,0,1-2.06-1.39,6.25,6.25,0,0,1-.85-3.33,6,6,0,0,1,.85-3.28,2.44,2.44,0,0,1,2.06-1.34,2.48,2.48,0,0,1,2.1,1.34,6,6,0,0,1,.86,3.28,6.25,6.25,0,0,1-.86,3.33A2.5,2.5,0,0,1,435.12,302.19Zm0,35.6a2.44,2.44,0,0,1-2.06-1.39,6.21,6.21,0,0,1-.85-3.32,6.34,6.34,0,0,1,.85-3.35,2.44,2.44,0,0,1,2.06-1.41,2.49,2.49,0,0,1,2.1,1.41,6.35,6.35,0,0,1,.86,3.35,6.21,6.21,0,0,1-.86,3.32A2.48,2.48,0,0,1,435.12,337.79Z" transform="translate(-148.28 -87.72)"/><path d="M465.43,340.74H444.16v-6.06h8.5V287.8L444,292V285.4l13-6.35v55.63h8.47Z" transform="translate(-148.28 -87.72)"/><path d="M482.61,341.75q-5.6,0-8.72-7.7t-3.14-22.26q0-16,3.27-24.2t9.43-8.21q11.81,0,11.8,30.93,0,15.33-3.33,23.38T482.61,341.75Zm.6-56.52q-8.06,0-8,26.22,0,24.49,7.89,24.49T490.84,311Q490.84,285.23,483.21,285.23Z" transform="translate(-148.28 -87.72)"/><path d="M511.56,341.75q-5.58,0-8.72-7.7t-3.13-22.26q0-16,3.26-24.2t9.43-8.21q11.8,0,11.8,30.93,0,15.33-3.33,23.38T511.56,341.75Zm.61-56.52q-8.05,0-8.06,26.22,0,24.49,7.9,24.49T519.8,311Q519.8,285.23,512.17,285.23Z" transform="translate(-148.28 -87.72)"/><path d="M551.87,297.65l-10.7,43.09H537l-10.18-43.09h4.72L538.31,329a41.9,41.9,0,0,1,1,6h.1a45.12,45.12,0,0,1,.84-5.85l7.14-31.47Z" transform="translate(-148.28 -87.72)"/><path d="M578.78,340.74h-4.3V315.91q0-13.47-6.24-13.47-3.15,0-5.3,3.9a20.54,20.54,0,0,0-2.15,10v24.41h-4.3v-63.8h4.3V304.8h.11q3.09-8.16,8.81-8.16,9.07,0,9.07,17.55Z" transform="translate(-148.28 -87.72)"/><path d="M590.82,331.14l-4.2,20.71h-3.06l3.06-20.71Zm-2.36-25.08a2.46,2.46,0,0,1-2.09-1.39,6.28,6.28,0,0,1-.85-3.32,6.08,6.08,0,0,1,.85-3.28,2.28,2.28,0,0,1,4.16,0,5.92,5.92,0,0,1,.87,3.28,6.11,6.11,0,0,1-.87,3.32A2.46,2.46,0,0,1,588.46,306.06Z" transform="translate(-148.28 -87.72)"/><path d="M226.46,411.51l-13.83-9.81v-1.34l13.83-10.94v3.4l-10.33,8.09V401l10.33,7.13Z" transform="translate(-148.28 -87.72)"/><path d="M232.46,413.56v-4a6.46,6.46,0,0,0,4.74,2.25q3.48,0,3.48-3.27a3.74,3.74,0,0,0-.3-1.58,4,4,0,0,0-.8-1.15,6.27,6.27,0,0,0-1.2-.9c-.45-.26-.94-.54-1.47-.82a17.81,17.81,0,0,1-1.92-1.24,6.57,6.57,0,0,1-1.38-1.41,5.84,5.84,0,0,1-.84-1.78,8.63,8.63,0,0,1-.28-2.34,7.5,7.5,0,0,1,.53-2.9,6.22,6.22,0,0,1,1.42-2.11,5.94,5.94,0,0,1,2-1.28,6.51,6.51,0,0,1,2.34-.43,7.16,7.16,0,0,1,3.83,1v3.77a6,6,0,0,0-4.18-1.68,3.5,3.5,0,0,0-1.33.24,3,3,0,0,0-1,.67,3,3,0,0,0-.65,1,3.58,3.58,0,0,0-.24,1.33,4.18,4.18,0,0,0,.24,1.52,3.18,3.18,0,0,0,.68,1.09,5.08,5.08,0,0,0,1.09.87l1.47.84a17,17,0,0,1,2,1.21,7.38,7.38,0,0,1,1.48,1.41,5.71,5.71,0,0,1,.94,1.8,7.93,7.93,0,0,1,.33,2.43,7.65,7.65,0,0,1-.54,3,6.08,6.08,0,0,1-1.44,2.11,5.77,5.77,0,0,1-2.07,1.25,7.57,7.57,0,0,1-2.47.41A7.19,7.19,0,0,1,232.46,413.56Z" transform="translate(-148.28 -87.72)"/><path d="M260.38,391.14l-6.56,23.26h-2.59L245,391.14h2.89l4.18,16.9a20,20,0,0,1,.58,3.24h.07a20.75,20.75,0,0,1,.51-3.15l4.38-17Z" transform="translate(-148.28 -87.72)"/><path d="M277.07,412.53q0,12.81-8.68,12.81a8.92,8.92,0,0,1-5.34-1.63V420a8.75,8.75,0,0,0,5.31,2.18q6.08,0,6.08-9.13v-2.54h-.07q-1.87,4.45-5.66,4.45a5.61,5.61,0,0,1-4.95-3.1,16.1,16.1,0,0,1-1.87-8.32q0-5.92,2-9.43a6.16,6.16,0,0,1,5.52-3.49c2.22,0,3.87,1.25,4.94,3.77h.07v-3.23h2.63Zm-2.63-8.65v-3.43a8.33,8.33,0,0,0-1.33-4.74,3.91,3.91,0,0,0-3.31-2,4.23,4.23,0,0,0-3.82,2.51,14.62,14.62,0,0,0-1.39,7,12.55,12.55,0,0,0,1.33,6.21,4,4,0,0,0,3.51,2.33,4.17,4.17,0,0,0,3.62-2.23A10.65,10.65,0,0,0,274.44,403.88Z" transform="translate(-148.28 -87.72)"/><path d="M303.23,414.4h-2.64v-3.64h-.07q-1.71,4.19-5.06,4.18a4.54,4.54,0,0,1-3.85-1.84,7.88,7.88,0,0,1-1.4-4.88c0-4.35,1.82-6.87,5.44-7.59l4.94-1q0-5.93-3.4-5.93a6.94,6.94,0,0,0-5.37,2.86v-3.81a8.11,8.11,0,0,1,5.6-2.18q5.81,0,5.81,8.67Zm-2.64-11.77-4,.77a5.31,5.31,0,0,0-2.77,1.29,4.52,4.52,0,0,0-.93,3.26,4.29,4.29,0,0,0,.86,2.78,2.77,2.77,0,0,0,2.29,1.08,3.78,3.78,0,0,0,3.24-1.94,8.82,8.82,0,0,0,1.28-4.92Z" transform="translate(-148.28 -87.72)"/><path d="M316.78,394.91a2.56,2.56,0,0,0-2-.75q-1.69,0-2.82,2.25a13.7,13.7,0,0,0-1.14,6.13V414.4H308.2V391.14h2.63v4.79h.07a8.92,8.92,0,0,1,1.72-3.82,3.34,3.34,0,0,1,2.59-1.38,3.17,3.17,0,0,1,1.57.32Z" transform="translate(-148.28 -87.72)"/><path d="M321,385.24a1.48,1.48,0,0,1-1.21-.68,2.88,2.88,0,0,1-.5-1.73,2.93,2.93,0,0,1,.5-1.74,1.46,1.46,0,0,1,1.21-.69,1.5,1.5,0,0,1,1.23.69,2.87,2.87,0,0,1,.51,1.74,2.81,2.81,0,0,1-.51,1.7A1.49,1.49,0,0,1,321,385.24Zm1.29,29.16h-2.64V391.14h2.64Z" transform="translate(-148.28 -87.72)"/><path d="M339.41,414.4h-2.63v-3.64h-.07q-1.71,4.19-5.06,4.18a4.57,4.57,0,0,1-3.86-1.84,7.94,7.94,0,0,1-1.39-4.88c0-4.35,1.81-6.87,5.44-7.59l4.94-1q0-5.93-3.4-5.93a6.94,6.94,0,0,0-5.37,2.86v-3.81a8.11,8.11,0,0,1,5.6-2.18q5.81,0,5.8,8.67Zm-2.63-11.77-4,.77a5.32,5.32,0,0,0-2.76,1.29,4.52,4.52,0,0,0-.94,3.26,4.3,4.3,0,0,0,.87,2.78,2.77,2.77,0,0,0,2.29,1.08,3.78,3.78,0,0,0,3.24-1.94,8.82,8.82,0,0,0,1.28-4.92Z" transform="translate(-148.28 -87.72)"/><path d="M352.81,402.91H344V400h8.78Z" transform="translate(-148.28 -87.72)"/><path d="M371.23,414.4h-2.64V401q0-7.28-3.83-7.27a3.82,3.82,0,0,0-3.25,2.1,10,10,0,0,0-1.32,5.39V414.4h-2.63V380h2.63v15h.07c1.26-2.93,3.07-4.4,5.4-4.4q5.56,0,5.57,9.47Z" transform="translate(-148.28 -87.72)"/><path d="M377.55,385.24a1.48,1.48,0,0,1-1.21-.68,2.88,2.88,0,0,1-.5-1.73,2.93,2.93,0,0,1,.5-1.74,1.46,1.46,0,0,1,1.21-.69,1.5,1.5,0,0,1,1.23.69,2.87,2.87,0,0,1,.51,1.74,2.81,2.81,0,0,1-.51,1.7A1.49,1.49,0,0,1,377.55,385.24Zm1.29,29.16H376.2V391.14h2.64Z" transform="translate(-148.28 -87.72)"/><path d="M398.23,414.4h-2.64v-4h-.06q-1.83,4.5-5.66,4.5a5.6,5.6,0,0,1-5-3.12,16.6,16.6,0,0,1-1.86-8.51,18.07,18.07,0,0,1,2.06-9.24q2.06-3.46,5.48-3.47c2.27,0,3.91,1.25,4.94,3.77h.06V380h2.64Zm-2.64-10.52v-3.43a8.35,8.35,0,0,0-1.31-4.77,3.93,3.93,0,0,0-3.35-1.95,4.22,4.22,0,0,0-3.8,2.5,14.37,14.37,0,0,0-1.38,6.9,12.79,12.79,0,0,0,1.33,6.35,4,4,0,0,0,3.56,2.33,4.1,4.1,0,0,0,3.58-2.25A10.69,10.69,0,0,0,395.59,403.88Z" transform="translate(-148.28 -87.72)"/><path d="M417.63,414.4H415v-4h-.06c-1.23,3-3.11,4.5-5.66,4.5a5.61,5.61,0,0,1-5-3.12,16.71,16.71,0,0,1-1.85-8.51,18,18,0,0,1,2.06-9.24q2.06-3.46,5.48-3.47c2.26,0,3.91,1.25,4.94,3.77H415V380h2.64ZM415,403.88v-3.43a8.36,8.36,0,0,0-1.32-4.77,3.91,3.91,0,0,0-3.34-1.95,4.21,4.21,0,0,0-3.8,2.5,14.37,14.37,0,0,0-1.38,6.9,12.79,12.79,0,0,0,1.33,6.35,4,4,0,0,0,3.56,2.33,4.1,4.1,0,0,0,3.58-2.25A10.79,10.79,0,0,0,415,403.88Z" transform="translate(-148.28 -87.72)"/><path d="M436.21,403.7H424.58a10.94,10.94,0,0,0,1.48,6,4.44,4.44,0,0,0,3.89,2.12,6.84,6.84,0,0,0,5.11-2.59v3.5a7.65,7.65,0,0,1-5.74,2.22,6.19,6.19,0,0,1-5.48-3.17q-2-3.16-2-8.91A16.25,16.25,0,0,1,424,394q2.19-3.4,5.41-3.41a5.54,5.54,0,0,1,5,2.95q1.77,3,1.77,8.2Zm-2.71-3.16a9.76,9.76,0,0,0-1.1-5,3.37,3.37,0,0,0-3-1.79,3.78,3.78,0,0,0-3.17,1.89,10.26,10.26,0,0,0-1.61,4.92Z" transform="translate(-148.28 -87.72)"/><path d="M453.87,414.4h-2.64V401.13q0-7.39-3.83-7.4a3.78,3.78,0,0,0-3.27,2.1,9.89,9.89,0,0,0-1.3,5.3V414.4h-2.64V391.14h2.64V395h.07q1.86-4.39,5.4-4.4a4.52,4.52,0,0,1,4.13,2.46,14.3,14.3,0,0,1,1.44,7.12Z" transform="translate(-148.28 -87.72)"/><path d="M475,397.5H459.9v-3H475Zm0,9.67H459.9v-3H475Z" transform="translate(-148.28 -87.72)"/><path d="M483.89,381.83,483.41,392h-1.85l-.48-10.15Zm5.34,0L488.75,392H486.9l-.48-10.15Z" transform="translate(-148.28 -87.72)"/><path d="M501.92,414.17a3.91,3.91,0,0,1-2.46.73c-2.88,0-4.32-2.28-4.32-6.82V394.32h-2.83v-3.18h2.83v-5.67l2.63-1.21v6.88h4.15v3.18h-4.15v13.1a7.14,7.14,0,0,0,.57,3.34,2,2,0,0,0,1.86,1,2.28,2.28,0,0,0,1.72-.77Z" transform="translate(-148.28 -87.72)"/><path d="M514,394.91a2.6,2.6,0,0,0-2-.75q-1.69,0-2.82,2.25a13.7,13.7,0,0,0-1.14,6.13V414.4h-2.63V391.14h2.63v4.79h.07a8.92,8.92,0,0,1,1.72-3.82,3.34,3.34,0,0,1,2.59-1.38,3.22,3.22,0,0,1,1.58.32Z" transform="translate(-148.28 -87.72)"/><path d="M530.22,414.4h-2.64v-3.68h-.07q-1.63,4.21-5.08,4.22-5.88,0-5.89-9.9v-13.9h2.63v13.31c0,4.9,1.33,7.36,4,7.36a3.67,3.67,0,0,0,3.18-2,9.89,9.89,0,0,0,1.25-5.26v-13.4h2.64Z" transform="translate(-148.28 -87.72)"/><path d="M548.78,403.7H537.15a10.94,10.94,0,0,0,1.48,6,4.44,4.44,0,0,0,3.89,2.12,6.84,6.84,0,0,0,5.11-2.59v3.5a7.65,7.65,0,0,1-5.74,2.22,6.19,6.19,0,0,1-5.48-3.17q-2-3.16-2-8.91a16.25,16.25,0,0,1,2.18-8.85q2.19-3.4,5.41-3.41a5.54,5.54,0,0,1,5,2.95q1.77,3,1.77,8.2Zm-2.71-3.16a9.76,9.76,0,0,0-1.1-5,3.37,3.37,0,0,0-3-1.79,3.78,3.78,0,0,0-3.17,1.89,10.26,10.26,0,0,0-1.61,4.92Z" transform="translate(-148.28 -87.72)"/><path d="M553.62,381.83,553.13,392h-1.85l-.48-10.15Zm5.34,0L558.47,392h-1.85l-.48-10.15Z" transform="translate(-148.28 -87.72)"/><path d="M302,250.09l-13.83-9.9v-1.35l13.83-11v3.43l-10.33,8.16v.09l10.33,7.2Z" transform="translate(-148.28 -87.72)"/><path d="M319.36,220.14,308.3,258.46h-2.46l11-38.32Z" transform="translate(-148.28 -87.72)"/><path d="M335.85,253h-2.64v-4h-.06c-1.23,3-3.11,4.53-5.67,4.53a5.59,5.59,0,0,1-5-3.15,16.86,16.86,0,0,1-1.86-8.58,18.38,18.38,0,0,1,2.06-9.33c1.38-2.33,3.2-3.5,5.49-3.5s3.91,1.27,4.94,3.8h.06V218.26h2.64Zm-2.64-10.61v-3.46a8.47,8.47,0,0,0-1.32-4.81,3.91,3.91,0,0,0-3.34-2,4.21,4.21,0,0,0-3.8,2.52,14.62,14.62,0,0,0-1.38,7,13.09,13.09,0,0,0,1.32,6.4,4,4,0,0,0,3.57,2.35,4.06,4.06,0,0,0,3.57-2.27A10.85,10.85,0,0,0,333.21,242.39Z" transform="translate(-148.28 -87.72)"/><path d="M342.54,223.58a1.46,1.46,0,0,1-1.21-.69,2.91,2.91,0,0,1-.5-1.74,2.94,2.94,0,0,1,.5-1.75,1.45,1.45,0,0,1,1.21-.7,1.48,1.48,0,0,1,1.23.7,3.21,3.21,0,0,1,0,3.47A1.49,1.49,0,0,1,342.54,223.58ZM343.82,253h-2.63V229.54h2.63Z" transform="translate(-148.28 -87.72)"/><path d="M362.11,229.54,355.55,253H353l-6.24-23.46h2.89l4.19,17.05a21.34,21.34,0,0,1,.58,3.28h.06a22.45,22.45,0,0,1,.51-3.19l4.38-17.14Z" transform="translate(-148.28 -87.72)"/><path d="M380.48,240.19l-13.83,9.9v-3.41L377,239.53v-.14l-10.36-8.16V227.8l13.83,11Z" transform="translate(-148.28 -87.72)"/><path d="M642,119.27l-13.83-9.81v-1.34l13.83-11v3.41l-10.32,8.08v.09L642,115.88Z" transform="translate(-148.28 -87.72)"/><path d="M659.42,89.59l-11.07,38h-2.46l11-38Z" transform="translate(-148.28 -87.72)"/><path d="M664.55,118.79h-.07v3.36h-2.64V87.72h2.64V103h.07c1.29-3.08,3.19-4.63,5.69-4.63a5.5,5.5,0,0,1,5,3.12,16.75,16.75,0,0,1,1.79,8.37,18.78,18.78,0,0,1-2,9.35,6.13,6.13,0,0,1-5.5,3.5C667.31,122.69,665.66,121.39,664.55,118.79Zm-.07-9.38v3.25a8.64,8.64,0,0,0,1.33,4.89,3.93,3.93,0,0,0,3.37,2,4.13,4.13,0,0,0,3.75-2.59,15.61,15.61,0,0,0,1.36-7.2,12.17,12.17,0,0,0-1.27-6.08,3.83,3.83,0,0,0-3.44-2.2,4.21,4.21,0,0,0-3.7,2.25A10.64,10.64,0,0,0,664.48,109.41Z" transform="translate(-148.28 -87.72)"/><path d="M694.53,122.15h-2.64v-3.68h-.07c-1.09,2.82-2.78,4.22-5.08,4.22q-5.88,0-5.89-9.9V98.9h2.63v13.3q0,7.36,4,7.36a3.67,3.67,0,0,0,3.17-2,9.87,9.87,0,0,0,1.25-5.26V98.9h2.64Z" transform="translate(-148.28 -87.72)"/><path d="M707.49,121.92a3.85,3.85,0,0,1-2.46.73q-4.34,0-4.33-6.81V102.08h-2.83V98.9h2.83V93.22l2.64-1.2V98.9h4.15v3.18h-4.15v13.1a7.32,7.32,0,0,0,.56,3.34,2,2,0,0,0,1.87,1,2.27,2.27,0,0,0,1.72-.78Z" transform="translate(-148.28 -87.72)"/><path d="M718.65,121.92a3.85,3.85,0,0,1-2.46.73c-2.88,0-4.33-2.27-4.33-6.81V102.08H709V98.9h2.83V93.22L714.5,92V98.9h4.15v3.18H714.5v13.1a7.32,7.32,0,0,0,.56,3.34,2,2,0,0,0,1.87,1,2.26,2.26,0,0,0,1.72-.78Z" transform="translate(-148.28 -87.72)"/><path d="M728.8,122.69a6.7,6.7,0,0,1-5.83-3.25,15.36,15.36,0,0,1-2.18-8.64q0-5.86,2.27-9.16a7.08,7.08,0,0,1,6.13-3.29,6.51,6.51,0,0,1,5.75,3.2q2.05,3.21,2.06,8.88a16,16,0,0,1-2.22,8.92A6.87,6.87,0,0,1,728.8,122.69Zm.19-21.2a4.52,4.52,0,0,0-4,2.44,13,13,0,0,0-1.48,6.73,12.2,12.2,0,0,0,1.5,6.52,4.54,4.54,0,0,0,4,2.38,4.34,4.34,0,0,0,3.94-2.34,13.32,13.32,0,0,0,1.37-6.65,13.54,13.54,0,0,0-1.37-6.72A4.32,4.32,0,0,0,729,101.49Z" transform="translate(-148.28 -87.72)"/><path d="M754.89,122.15h-2.64V108.89c0-4.94-1.28-7.4-3.83-7.4a3.78,3.78,0,0,0-3.27,2.1,10,10,0,0,0-1.3,5.3v13.26h-2.63V98.9h2.63v3.86h.07q1.86-4.41,5.4-4.41a4.54,4.54,0,0,1,4.14,2.47,14.38,14.38,0,0,1,1.43,7.11Z" transform="translate(-148.28 -87.72)"/><path d="M775.39,109.46l-13.83,9.81v-3.39l10.36-7.08v-.14l-10.36-8.08V97.17l13.83,11Z" transform="translate(-148.28 -87.72)"/><path d="M154.54,295.41a2.58,2.58,0,0,0-3.51.78,5.36,5.36,0,0,0-.83,3.16v6.12h-1.92v-12h1.92v2.47h.05a4.17,4.17,0,0,1,1.25-2,2.82,2.82,0,0,1,1.89-.71,3.16,3.16,0,0,1,1.15.16Z" transform="translate(-148.28 -87.72)"/><path d="M166,300h-8.47a4.44,4.44,0,0,0,1.08,3.09,3.68,3.68,0,0,0,2.83,1.09,5.9,5.9,0,0,0,3.73-1.33v1.8a6.94,6.94,0,0,1-4.18,1.15,5.07,5.07,0,0,1-4-1.63,6.7,6.7,0,0,1-1.45-4.6,6.61,6.61,0,0,1,1.58-4.57,5.12,5.12,0,0,1,4-1.76,4.52,4.52,0,0,1,3.64,1.52,6.36,6.36,0,0,1,1.29,4.23Zm-2-1.63a3.91,3.91,0,0,0-.8-2.59,2.73,2.73,0,0,0-2.2-.92,3.12,3.12,0,0,0-2.31,1,4.43,4.43,0,0,0-1.17,2.54Z" transform="translate(-148.28 -87.72)"/><path d="M178.82,305.47H176.9v-6.84q0-3.83-2.79-3.82a3,3,0,0,0-2.39,1.08,4,4,0,0,0-.94,2.74v6.84h-1.92v-12h1.92v2h.05a4.33,4.33,0,0,1,3.93-2.27,3.68,3.68,0,0,1,3,1.27,5.69,5.69,0,0,1,1,3.67Z" transform="translate(-148.28 -87.72)"/><path d="M192.68,305.47h-1.92v-2h0a4.42,4.42,0,0,1-4.12,2.32,4.51,4.51,0,0,1-3.62-1.61,6.64,6.64,0,0,1-1.35-4.39,7.21,7.21,0,0,1,1.5-4.77,5,5,0,0,1,4-1.79,3.85,3.85,0,0,1,3.59,1.94h0V287.7h1.92ZM190.76,300v-1.77a3.44,3.44,0,0,0-1-2.46,3.22,3.22,0,0,0-2.44-1,3.3,3.3,0,0,0-2.76,1.28,5.62,5.62,0,0,0-1,3.57,5,5,0,0,0,1,3.27,3.14,3.14,0,0,0,2.59,1.2,3.27,3.27,0,0,0,2.61-1.16A4.31,4.31,0,0,0,190.76,300Z" transform="translate(-148.28 -87.72)"/><path d="M206.22,300h-8.48a4.54,4.54,0,0,0,1.08,3.09,3.72,3.72,0,0,0,2.84,1.09,5.92,5.92,0,0,0,3.73-1.33v1.8a7,7,0,0,1-4.19,1.15,5.05,5.05,0,0,1-4-1.63,6.7,6.7,0,0,1-1.46-4.6,6.57,6.57,0,0,1,1.59-4.57,5.1,5.1,0,0,1,3.94-1.76,4.54,4.54,0,0,1,3.65,1.52,6.36,6.36,0,0,1,1.29,4.23Zm-2-1.63a4,4,0,0,0-.8-2.59,2.73,2.73,0,0,0-2.2-.92,3.09,3.09,0,0,0-2.31,1,4.43,4.43,0,0,0-1.17,2.54Z" transform="translate(-148.28 -87.72)"/><path d="M215.38,295.41a2.39,2.39,0,0,0-1.45-.38,2.44,2.44,0,0,0-2.06,1.16,5.36,5.36,0,0,0-.82,3.16v6.12h-1.93v-12h1.93v2.47h0a4.18,4.18,0,0,1,1.26-2,2.81,2.81,0,0,1,1.88-.71,3.13,3.13,0,0,1,1.15.16Z" transform="translate(-148.28 -87.72)"/><path d="M222.51,309.29H220.8a15,15,0,0,1-3.64-10.23,15.52,15.52,0,0,1,3.64-10.4h1.73A15.83,15.83,0,0,0,218.85,299,15.5,15.5,0,0,0,222.51,309.29Z" transform="translate(-148.28 -87.72)"/><path d="M224.76,309.29h-1.71A15.54,15.54,0,0,0,226.7,299,15.83,15.83,0,0,0,223,288.66h1.74a15.53,15.53,0,0,1,3.65,10.4A15,15,0,0,1,224.76,309.29Z" transform="translate(-148.28 -87.72)"/><path d="M236.51,309.29q-3.6,0-3.6-3.63v-3.52c0-1.58-.61-2.41-1.83-2.48V298.3c1.22-.08,1.83-.92,1.83-2.53v-3.43c0-2.42,1.2-3.64,3.6-3.68v1.5c-1.24,0-1.86.81-1.86,2.32v3.44c0,1.64-.59,2.65-1.76,3V299c1.17.35,1.76,1.35,1.76,3v3.39a3.22,3.22,0,0,0,.41,1.85,1.74,1.74,0,0,0,1.45.58Z" transform="translate(-148.28 -87.72)"/><path d="M180.83,328.41a2.39,2.39,0,0,0-1.45-.38,2.45,2.45,0,0,0-2.06,1.16,5.36,5.36,0,0,0-.82,3.16v6.12h-1.92v-12h1.92v2.47h.05a4.17,4.17,0,0,1,1.25-2,2.82,2.82,0,0,1,1.89-.71,3.07,3.07,0,0,1,1.14.16Z" transform="translate(-148.28 -87.72)"/><path d="M192.25,333h-8.47a4.49,4.49,0,0,0,1.07,3.09,3.72,3.72,0,0,0,2.84,1.09,5.92,5.92,0,0,0,3.73-1.33v1.8a7,7,0,0,1-4.19,1.15,5.06,5.06,0,0,1-4-1.63,6.7,6.7,0,0,1-1.46-4.6,6.57,6.57,0,0,1,1.59-4.57,5.1,5.1,0,0,1,3.94-1.76,4.53,4.53,0,0,1,3.65,1.52,6.36,6.36,0,0,1,1.29,4.23Zm-2-1.63a4,4,0,0,0-.8-2.59,2.73,2.73,0,0,0-2.2-.92,3.09,3.09,0,0,0-2.31,1,4.43,4.43,0,0,0-1.17,2.54Z" transform="translate(-148.28 -87.72)"/><path d="M200.72,338.35a3.69,3.69,0,0,1-1.79.38q-3.15,0-3.15-3.52v-7.1h-2.07v-1.64h2.07v-2.93l1.92-.62v3.55h3v1.64h-3v6.76a2.73,2.73,0,0,0,.41,1.72,1.61,1.61,0,0,0,1.36.52,2,2,0,0,0,1.25-.4Z" transform="translate(-148.28 -87.72)"/><path d="M213,338.47h-1.92v-1.9h0a4,4,0,0,1-3.7,2.18q-4.29,0-4.29-5.11v-7.17h1.91v6.87q0,3.8,2.91,3.79a2.93,2.93,0,0,0,2.31-1,4,4,0,0,0,.91-2.72v-6.91H213Z" transform="translate(-148.28 -87.72)"/><path d="M223.13,328.41a2.58,2.58,0,0,0-3.51.78,5.36,5.36,0,0,0-.83,3.16v6.12h-1.92v-12h1.92v2.47h.05a4.17,4.17,0,0,1,1.25-2,2.82,2.82,0,0,1,1.89-.71,3.16,3.16,0,0,1,1.15.16Z" transform="translate(-148.28 -87.72)"/><path d="M235.13,338.47h-1.92v-6.84q0-3.83-2.79-3.82a3,3,0,0,0-2.39,1.08,4,4,0,0,0-.94,2.74v6.84h-1.92v-12h1.92v2h0a4.32,4.32,0,0,1,3.93-2.27,3.64,3.64,0,0,1,3,1.27,5.63,5.63,0,0,1,1,3.67Z" transform="translate(-148.28 -87.72)"/><path d="M243.79,342.29h-1.71a15,15,0,0,1-3.64-10.23,15.52,15.52,0,0,1,3.64-10.4h1.73A15.83,15.83,0,0,0,240.13,332,15.5,15.5,0,0,0,243.79,342.29Z" transform="translate(-148.28 -87.72)"/></svg>