<svg id="Layer_1" data-name="Layer 1" xmlns="http://www.w3.org/2000/svg" viewBox="0 0 1229.14 937.36"><defs><style>.cls-1{fill:#181819;}</style></defs><title>mylogo</title><path class="cls-1" d="M667.7,256.66c1.39.78.49-.13.37-.87Z" transform="translate(-34.22 -18.88)"/><path class="cls-1" d="M668.07,255.79l.26-.61A.53.53,0,0,0,668.07,255.79Z" transform="translate(-34.22 -18.88)"/><path class="cls-1" d="M669.47,249.86c1,1.5-.64,3,1.06,4.08A2.46,2.46,0,0,0,669.47,249.86Z" transform="translate(-34.22 -18.88)"/><polygon class="cls-1" points="633.98 232.96 634.92 233.23 633.51 231.88 633.98 232.96"/><polygon class="cls-1" points="633.04 233.74 633.4 233.6 632.55 231.63 633.04 233.74"/><path class="cls-1" d="M670.37,245.14l.26,1.44c-1.33,1.25-1.75-1-2.64-.12-.07,1.73,2.7.74,2.13,2.91,1.26-.09.22-3.51,2.1-3.09C672.83,244.39,671.07,246.15,670.37,245.14Z" transform="translate(-34.22 -18.88)"/><path class="cls-1" d="M622.44,206.4a1.37,1.37,0,0,0-.15-.25C622.33,206.41,622.38,206.6,622.44,206.4Z" transform="translate(-34.22 -18.88)"/><path class="cls-1" d="M600.41,198.69a5.4,5.4,0,0,0-.65-1.17,2.21,2.21,0,0,0,0,.81Z" transform="translate(-34.22 -18.88)"/><path class="cls-1" d="M634.66,203.8a4.58,4.58,0,0,0,.65.7A.86.86,0,0,0,634.66,203.8Z" transform="translate(-34.22 -18.88)"/><path class="cls-1" d="M615.33,87.39a1.68,1.68,0,0,0,.56.12l.05-.05-.52-.25Z" transform="translate(-34.22 -18.88)"/><path class="cls-1" d="M586.32,167.65a6.48,6.48,0,0,0-.18-1.25C586.07,167.11,586.15,167.46,586.32,167.65Z" transform="translate(-34.22 -18.88)"/><path class="cls-1" d="M641.13,204.88l-.26-.07a1.36,1.36,0,0,0,.29.3l0-.23Z" transform="translate(-34.22 -18.88)"/><path class="cls-1" d="M606.86,206.76a3.62,3.62,0,0,0-.8-.75A2.32,2.32,0,0,0,606.86,206.76Z" transform="translate(-34.22 -18.88)"/><path class="cls-1" d="M670.49,222.46a1.07,1.07,0,0,0-.49-1C669.81,221.82,669.86,222.17,670.49,222.46Z" transform="translate(-34.22 -18.88)"/><path class="cls-1" d="M667.23,213.89l0,0C667.44,213.74,667.38,213.75,667.23,213.89Z" transform="translate(-34.22 -18.88)"/><path class="cls-1" d="M664.49,208.64l.1,0C664.68,208.5,664.69,208.44,664.49,208.64Z" transform="translate(-34.22 -18.88)"/><path class="cls-1" d="M670,221.44c.51-1,2.75-2.27-.09-2.11l-.28.35c.4-.84-.85-1.21-1.13-1.8a5.32,5.32,0,0,0-.53.54,8.92,8.92,0,0,1,.17,1.51C667.85,220.92,669.21,220.88,670,221.44Z" transform="translate(-34.22 -18.88)"/><path class="cls-1" d="M622.58,205.81c0,.61.5.38,0,0Z" transform="translate(-34.22 -18.88)"/><path class="cls-1" d="M628.74,204.29l-.56-.18C628.35,204.25,628.52,204.39,628.74,204.29Z" transform="translate(-34.22 -18.88)"/><path class="cls-1" d="M648.36,210c0-.06,0-.1,0-.16C648.19,210.16,648.27,210.15,648.36,210Z" transform="translate(-34.22 -18.88)"/><path class="cls-1" d="M627.65,204a3.33,3.33,0,0,1,.53.11C628,204,627.86,203.86,627.65,204Z" transform="translate(-34.22 -18.88)"/><path class="cls-1" d="M643.36,206.17a.54.54,0,0,0-.06-.11A.17.17,0,0,0,643.36,206.17Z" transform="translate(-34.22 -18.88)"/><path class="cls-1" d="M536.67,77.17c.12-.68.89-.5,1.36-.84-.79-2.35-1.41,2.25-1.75-.45a3,3,0,0,0-.33,1.6l1.81.42C537.79,76.5,536.9,78.16,536.67,77.17Z" transform="translate(-34.22 -18.88)"/><path class="cls-1" d="M618.34,79.68l-.12.29c.74-.32,1-.19,1.3-1.31-1.29-.63-2.79,1-4.35-.11a1.22,1.22,0,0,1,.1,1.08A2.68,2.68,0,0,1,618.34,79.68Z" transform="translate(-34.22 -18.88)"/><path class="cls-1" d="M615.27,79.63l-.08.06a2.44,2.44,0,0,0-.39.28,1.2,1.2,0,0,1-.14.59A1.75,1.75,0,0,0,615.27,79.63Z" transform="translate(-34.22 -18.88)"/><path class="cls-1" d="M548.86,62c.2-.12.37-.24.54-.32C549,61.55,548.86,61.71,548.86,62Z" transform="translate(-34.22 -18.88)"/><path class="cls-1" d="M607.88,168.65a3.66,3.66,0,0,0,.56.5A.82.82,0,0,0,607.88,168.65Z" transform="translate(-34.22 -18.88)"/><path class="cls-1" d="M617,93.88a2,2,0,0,0-.34.64c0,.14,0,.26,0,.43Z" transform="translate(-34.22 -18.88)"/><path class="cls-1" d="M594,71.15c.85-2-.13,0-.18-1.31l-.7,1C593.31,71.35,593.74,71,594,71.15Z" transform="translate(-34.22 -18.88)"/><polygon class="cls-1" points="501.6 58.57 501.74 58.69 501.73 58.59 501.6 58.57"/><path class="cls-1" d="M581,71.49l-.31-.24A.56.56,0,0,0,581,71.49Z" transform="translate(-34.22 -18.88)"/><path class="cls-1" d="M614.9,85a24.77,24.77,0,0,1-.06,3.34l.49-1C614.43,87,616.13,85.44,614.9,85Z" transform="translate(-34.22 -18.88)"/><path class="cls-1" d="M597.16,75.62l-.88.95c1.19-.3,1.49.33,1.55,1.15s.33,1.38,2.21,1.36c-3.57,3.58,3.89.47.71,3.73l.57-.19c.26,8.36-3.35,18-3.91,27.81l-.78-.31c-1.19,3.29-2.59,7.72-3.81,12s-2.2,8.7-3.14,13.13-1.57,9.18-2.4,13.72c-.52,4.89-1.26,9.57-1.5,14.93.68,2,2.52.86,3.38,2.49-.15.66.06,2.34-.95,2.39-.62-1.45-1.47-.61-1.89-1.12.22,2.48-.8,5.88.63,8,.33-.73.77-1.38,1.15-2,.55.75.33,2.15.44,3-.71-.23-1.91,1.3-2.34.62,2,2.24,1.85,3.2,1.45,4.3a3.74,3.74,0,0,0,.33,4.28c1.44-.12,3.13.92,4.79,2.05a44.51,44.51,0,0,0,5.33,3,11.91,11.91,0,0,0,.43,1.9c-1.33-1.85-1.64,1.74-3-1,.58,2.9,3.15,3.62,4.28,5.79.16-1,.81-1.64,1.63-1.41.72,1.19,0,2.62,1.1,3.76l-1.68-.15c.21,1.72,1.71,1,2.53,1.38-.37,1.41,1.45,2.75.53,3.93,2.44-.69,2.73.79,4.88.37-1.4-2.14,1-1.51,1.11-2.69a14.19,14.19,0,0,1-2.15-.4c2.55,2.26-1-.18-1.62,2-1-1.78,3.18-2.48.82-3.45,1.53.27,2.29.55,3.12.74a5.29,5.29,0,0,0,3.17-.13c-1.62-.15.65-1.35,0-2.37,1.87.54.27,1,.51,2.62,1,.24,1.18,1.67,2.47.24,1.57,1.2-.57,1.67.12,2.87-1,1.39-4.39-3.35-5.18,1.69-1-.34-2.8,1-4.28.27,1,1.17,2.6,3.68,4.5,3.11l.74-2.81c1.16.28,1.8-1.59,2.54-1.1a1.39,1.39,0,0,0,.9,2.16c-.18-.48-.56-.49-.37-1,1.73.29,2.21-1.74,4.15-1.85-1.41-1.1-1.57-2-2.76-3.61.74-1.89,1,0,1.88-.11-.16.25-.34.27-.17.72l1-.78c1.71,1.27-.67,2.88.74,4.2.88,2,1.57-.7,2.26.42,0-.19-.07-.4-.09-.54a1.32,1.32,0,0,1,.38.2v-.14c1-.14,2,.2,2.47-1.28,0,.71.84-.08,1.2-.51.59-.54,2-2.17,2.55.4,0,0,0,0-.06,0,1.14.46,1.93,1.36,1.61,2.15l1.77.87-.4,2c1.73-.3,1.64-1.47,3-3.34,1,1.36,3.15.77,4,.23.11.11.3.15.63.12l-.54-.92c1.22.35,1.24-.72,2.07-.55-.14-.22-.15-.34.26.07a2.1,2.1,0,0,1,.44.28c-.08.19-.25.11-.41,0l0,.7c.56,2.36,1.68-.75,2.58.28-.11,0-.31.13-.41.08.48.7.66,3.63,1.24,2.09.07.26.34,0,.63-.34l.31.44a2.75,2.75,0,0,1-.31-.44c.39-.46.81-1,.73-.62l1.28.89c.18.38.62.26,1,.17l-.05.89c.5.14.34.59.21.77.28,1.75.95,1.71,1.73,1.67s1.48.1,1.62,1.68c.94-.94.61-1.92.89-2.59a5.14,5.14,0,0,1,3-.9c-.24,2.31.63,5.41-1.41,7,.67,1.39.78-1.55,1.77-1.57l0,.23a6.64,6.64,0,0,1,.56-2.7,1.13,1.13,0,0,1,2.09.56l-1.52,1.12c1.37.86,3.25-1.44,5.36-1.68.3,1.83-1.55,2.15-2.68,3.49l1,1.08-1.14.82c.69.61,1.89.13,2,1.64-1.44-.24-.45,2.5-2.42,2.1-.21.87,2.22-.12.7,1.05,1.46-.16.46-.94.76-1.52,1.76-1.28,1.39,1.15,2.16,1.81-1,.48-1.35-.06-1.7,1.2.81-.11,1.64.32.85,1.25,1.27-.45.48,1.15.51,1.78.13-.76.88-2.1,2.07-2,.61.4,1,.83,1,2.19l.44-1.08c2.11.66-1,2.3-.13,3.68-.91-.49-1-.9-2-1.22a11.92,11.92,0,0,1,2.66,2.82l-1.81,1.64c1,0,0,1.49,1.36,1.33-.75,1.75-1.7-1.15-2.67-1.14-.71,2.09,2.33,1.37.47,3.51l-1.28-.53c0,.63.8,1.84.14,2,.45,0,.27-.35.23-.73,2.72.2,1.87,2.94,4.62,2.61l.18-1c.53,1.43,2.38,2.48,1.42,3.63-.88.86-1.85-.63-2.56-1.12-.18,1.35,3,1.12,2.74,2.79.44-.87,1.41-.69,2.12-.13.17-1,.69-3.07-.45-2.7l-.27.36c-.71-.09-1-.62-1.32-.87,0-1.33,1.23-.65,1.76-.93.43-2.26-2.73-.1-2.65-2.1l.53-.3c-.75-.92-1-2.39-2.68-2.47,1.69-1.06-.88-2.1.09-3.17,3.84-.75,0,3.37,2.22,4.26.71-1.13,1.9.45,2.82.87l-2-3.27c.5-.32,2.34-1.61.89-2l-.07.28c-.55-1.3-2.1-.66-1.67-1.9.34-.25,1,0,1.25,0,.26-1.15-1-.74-1.44-1.36.15-1.14,1.66.2,1.92-.79-1.7-.93,0-2.09-.31-3.2-2.08,1-3.69-3.27-5.14-.4a16.6,16.6,0,0,0-2.06-1.7c.85-1.19,3.41.38,5-.92a12,12,0,0,1,.41,2.05c2.69-1.35-2.85-3.5-.41-6.14-.29-1.17-.37-.7-.13-3.48l-2,1.69a4.28,4.28,0,0,1,1.41-2.74,4.78,4.78,0,0,1-.84-1.78,1.06,1.06,0,0,1,1.06.24c.76-1.69.2-1.64-.54-1.43-.7,0-1-.71-1.44-1.34l1.11-.08c-.42-.25-1-.53-1.33-.25a1.64,1.64,0,0,0-.66-.57,8.18,8.18,0,0,0-1,3.21c-.67-2.81-2.07-4.07-2.33-7.39.52-.59,1.8-.65,1.65-.94a1.62,1.62,0,0,0-2.86.1,2.07,2.07,0,0,1-.49-.35c.21-.72.43-1.59.07-2a1.21,1.21,0,0,0-.28-.93c-1.39,1.71-2.51-.53-3.32.12a3.17,3.17,0,0,0,1.27,1.13c-1.39.79-2.66,1.94-2.66.47,1.86-.37-.39-3.16,1.8-2.29-.22-3.65-1.56,1.37-2.62-.42l-.57-1.6c.73-1.48,1.92.12,1.92-.58l-.78-.2c.57-.37,1.47-.06,2.5.42a6.07,6.07,0,0,0,3.48,1c-1-1.11-2-2.26-3-3.34-5.06-1-9.9-5-14.08-2.22h.15a4.83,4.83,0,0,0-.33,1.07l-.08-.46-.87,1.12c-.5-1.73-1.88-2.35-2.94-3.87a3.09,3.09,0,0,1,.53,2.48c-.38,1.67-.6,2.32-1.61,1.51.14-1.2.82-1.05.13-2.14a1.08,1.08,0,0,1-.63,1.51c-.52-.88-1.54-1.22-1.41-2.43.32-.27.51.18.68.39.33-.27-1-1.28-.07-2.12l-1.18.15c-.55-1.11.62-1.5.42-2.19-2,.5-3.16,3.17-4.91,3.73.14-.62.42-3.31.33-2.53-1.2-1-2.94,2.54-4.38,2.55.29-.76.78-.37,1.24-.69-4.12-1.65-7.65-2.25-10.35-5.79l-1.48,2.42c-.16-.67-.25-1.4-.36-2.09-2.7-2.89-4.73-2.29-6.92-3.84-.63-.51.87-1.58,1.23-2.35-.19-.78-.9-.75-1.78-.81a3.15,3.15,0,0,1-2.28-1.31c.77,0,2.75-.49,2.59-1.22-.67.13-1.72.45-1.48-.24a4.64,4.64,0,0,0,.75,0c.86-.8-.11-1,.12-2.24a12.07,12.07,0,0,0-4.74-5.84c.26-2.3,2.45.25,3-.22-.76,1.47.47,1,1.28,1.25-.7-.69-1.17-1.63.54-2.05a3.32,3.32,0,0,0-1-2.8c.53.6-.38,1-1.1.47.62-.91.08-3.39,2.12-3a71.6,71.6,0,0,1,1-8.85c.66-3.1,1.15-6.2,1.88-9.34-.78-1.37-.59.68-1.17-.13-1-2,1-1,.2-2.57l1,.87c.58-1.77-1-4.39-1.54-6.56,1.16.74,1.36-1.1,1.74.65,0-1,5.74,0,4.8-1l-5.35-.93c-.48-.23.16-1.34-.21-1.35,1.21-.39,2.65-.87,2.78-1.39,1.36.24.72,1.45.49,2.15,2.12.92,2-1.88,3.71-.09.07-1.66-1.15-.21-1.69-1.43l.82-1.15-1,.75c-.33-1.37-1.85-2.4-.25-3.42L614,125c1.72.53.62-1,1.23-1.65l.93.95a2.62,2.62,0,0,1,1.46-1.92c1.29,1.3-.65,1,.68,1.79.26-.28.56-.73.84-1.09-1-.39-1.47-1.55-2.3-.83-1.44-2-2.75-3.21-1.82-6.15,2-.77,1.07,2,2.84,2,1.53-3-3.25-5.39-2.64-7.15,1.14-2.18-.42-2.51-.07-4.94,1,1.08,1.54-1.36,2.72-1.56l1,1.28c-.21-.85.38-1.47,1.17-1-1.52-.2-.89-3.62-1.5-5.55l-1.37.08c-.29-1.45-.93-3.4-.43-4.77-.26-2.17-1.55-1.82-3-3.49a5,5,0,0,1,4.14-.31c-.71.56-.33,1.57-.77,2.5,1,2.78,3.49,5.39,2.54,8.1,3.08,1.86-.16-2,1.13-3.13a.37.37,0,0,1,.26.29.62.62,0,0,1,.13-.33c.29,1.08.61,2.84,2.23,3.45-.13-1.84-3.09-1.83-1.46-3.74-.75-1.7,2-2.66,2.27-3.68-1.19-1.26-3.8-1.47-3.24-4.1l1.81,1.26c.1-3.11-2.65-1.52-2.52-4.28-.23,1-1.78-.87-1.86.92-.91-.86-1.14-2.74-.79-4.27-.31-.35-.63,0-1.25,0-1.15,1.66,1.47,2.46-.42,3.78l1.95,1.07a1.89,1.89,0,0,1-3.1.68c.08.39.34.75,0,1-3,.16,1.1-1.66-1.42-2.15l.2,1c-2,.37-1.58-2.19-1.56-3.4.79-1.41,1-2.74,2.39-3l.76,1.9c1-1.15-.86-2.46-.9-3.57a1,1,0,0,0,.41-.39.91.91,0,0,1-.38.16,1.27,1.27,0,0,1,.52-.75c0-1-1.24-2.27-1-3.31l-1.19.48.71-.08c.14.92-.37,2.28-1.42,1.85-1.23-1.64,1-2.74,2-3.61,2-.13.41,2,1.26,2.92,1.71-1.14-.24-2.2.48-4.85,2.19.18.53,2.65,2.49,2.6-.08-2-1.53-2-1.56-4.21,1.07-.14,1.51,1.83,2.7,1.28l.26-1.58c.87,3.39,2.33-1.57,3.42,1.05.46-1.68-1.88-1.23-1.33-3.65-.65,1-1.74,3-3.08,1.62l-.1-2.17c.63-1.32,2.78,1.08,3.11-.61l-1.42-1.83c-.53.4-.46,1.54-1.46,1.33.15-1.52-2.82-.69-4.17-1.33a2.86,2.86,0,0,1-.33-2.6c-2.68-1.28-4.73-3.77-7.32-3.91,1.77.09,1.45-2,1.26-3.51,1.51,1,2.78-.5,3.55-1.77-1-.89-2.88.53-2.84,1.52-1-2.05-1.8.42-2.32-2-.49-1.4,1.51-1.55,1.63-2.52-1.72-1.51-1.73,1.91-3.35.12.23-.21.45-.19.47-.66a1.9,1.9,0,0,0-3,.21,2.08,2.08,0,0,0-1.51-2.31c-.66-.15-1.15-.21-.64-1.58-2.86-.19,0,1.68-.83,2.47-1.36.89-3-.77-3.5-1.43.63.13,1.38-.46,1.9.2L597.51,46c-3.16-2.5-2.82,4.06-5.59,1.71,1.67-.81.67-1.46,1.64-2.77-.56.42-3-.53-1.63,1.26A21.23,21.23,0,0,1,589.2,45c-1.06.77-2.16,1.34-2.69,2.69a6.89,6.89,0,0,1-3.59-2.25c-1.59.93-3.16.92-4.73,1.14s-3.26.28-4.64,1.72l.26,0c-2.53.58,1.72,2.21-.78,3.1-.32-2.53-1.94-1-3.16-2-3.47.36-4.6,4.27-7.79,4.52a1.28,1.28,0,0,1,.23-1.53c-2.39.58-3.82,2.17-5.6,3.48l-.06-.32c-3.84.47-5.08,4.88-7.33,8,0-.47-.44-1.24-.46-1.68-1.59,1-4,3.13-3.44,5.79-2.9.17-.44,1.72-3.73,2.56-.39-.15-.08-.52,0-.75-1.42.68-1.92,1.7-2.91,2.88-.73,4,.93,6.33-1.44,9.35-2.52-1.61.49-2.63-1.36-4.2,0,1.07.23,2.06-.84,2.64-.65-1.31-.54-.57-1.21-1.66-1,.36,1,5,.79,4.77.46.37.85.28,1.12-.47,1.08,1.83-1.56,3.59-1.57,5.85.27-.58,1.48-2.1,2.42-.69-1.46,2,.72,4.22,1.19,6.28-2,1.49-1.63-2.64-3.6-3.24-.8,0-2.62.2-3-1.14-1.25,1.88,0,4.26-.13,6.29l-.52-.27c-.62,2.79,1.19,6.36-.27,8.29l.85-1c.25.52-.16,1.83.84,2.82-.9-.31-2,1.25-2.67.38,2.62,1.79,1.19,6.47,3.88,8-.8.62-2,0-2.64-.29.4-1.67,1-2.13-.08-3.18-.08,1.4-.93,2.36-1.59,2.08a12.12,12.12,0,0,1,2,3.17,5.17,5.17,0,0,0,2.26,2.46c-.93,1-1.42,1.94-3,1.62,1,4.17,4.77-2.14,4.81,2.42-1.48,2.19-2.07-1.92-2.54,1l-.26-.53c-3.92,2.5,3,1.26,3,3.51-2.13.62-1.72-1.44-3.1.41.79,2.15,4.07,2.46,3.62,4.66l-1-.12c.4,1.28.5,4,.93,5.24-.4.19-.38,0-.55-.24-.3,2.72,1.29.66.24,3.17l1.14.21c.51-1.28,1.17-3.47-.3-4.36,1.46.86,2.31-2.69,4.25-2.55l-.78,0a20,20,0,0,0,2.36-5.74c.52-1.89.51-3.79,1.19-5.65-2.19-2.26.72-3.9-.59-6.39-2.51-.6-.47-.51-.8-2.72.22,1.18,1.92.38,2.32-.25a3.09,3.09,0,0,1-1-1.59c.88-.32,3.4-2.29,1.86-3.66,1-1,.74.51,1.21.9,1.37-.12-.82-1.25.11-1.4a.86.86,0,0,1,.36.26c.15-1.87,1.25-2.65,2-4.31-2.29-1.15-.46-2.22-.93-3.38.65.62,1.25-.56,1.87-.82l-1.32-1.9c-1-1.8,1.44-.77,1.27-2.4l-.54,0c-.22-1.32,2.23-2.73,3.74-2.63a11.42,11.42,0,0,1,1.69-6.18A12.27,12.27,0,0,1,558.43,82c3-1.55,6.08-2.42,8.89-5.58,0-1.09-1-1-1.29-2.41a4.69,4.69,0,0,1,1.35-1.38c-.91-.25-.38.53-.68-.24l-.58,1.48c-.15-.15-.08-.31-.37-.6-.2.49-.3,1.29-.79,1.48.22-1.1-.63-3.09.6-3a1.19,1.19,0,0,1-.12.81c.76-.39.32-1.32,1.1-1.23.85-.08.4-.54.89.22.83-.15,1.69-.19,2.5-.28,0-3,2.2-1.59,2.61-1.47.46,1.88-1.12,1.33-.85,3.4l1.22.86-.55-1.46a6.52,6.52,0,0,1,1.15-.17l.06.31c-.1-.63-.19-1.26.26-.89.12.18.36.53.28.67l.43-1.17c.12,1.73.78.13,1.28,2,2.46-.26,2.27-3.69,4.88-2-.53-.79,0-3.08.78-2.92a1.41,1.41,0,0,1,.51,1.53l.67-1.19c1.46,2.62,2.14.78,3.67,1.52l0,.85c.46-1.1,1-1.78,1.76-1.49l-.15,1.68c.82,1.21.81-3.61,1.78-2.41.15-1.83-.49-2.82-.56-4.5.25,1.76,1.34,2.3,1.19.93,1.21-.53.79.18.83.63l.81-1c.8.21-.14,2.36-.53,3.35,1-1.9,1.44-.15,2,.32l-.46.69.77.59c.94-1.17,1.7-.68,2.08.27-.46.62-.9,1.25-1.32,1.9-.09,1.3.51-.63.78-.93,1.19-.72.53,1,.17,2.25,1-.68,1,.38.71,1.42S595.8,76.3,597.16,75.62Zm51.16,133.14-.05-.42C648.76,208.16,649.1,207.92,648.32,208.76Zm-10.67-4c1.51-.62.92.4.93,1.07-1.25-.95-2.13-.31-3.27-1.29a6,6,0,0,1,.12,1.54c-.47-.19-.9-.79-.93-2C635.4,201.75,638.11,206.18,637.65,204.72ZM666.57,211l-.47.08h0Zm-7.16-6.28a1.92,1.92,0,0,0,.06-1.24C659.27,204.11,659.11,204.64,659.41,204.72Zm-14-10.94c-.17-1.07-1.07-1-1.71-1A5.32,5.32,0,0,0,645.44,193.78ZM609,132.67c.16.61.75,1.83,1.52,1.19-.57-.65.82-1-.12-1.72a.21.21,0,0,1,.11,0A5.45,5.45,0,0,0,609,132.67Zm1.35-52.17c.8-.07,1.71.15,2.29-.22l0,.16c.26-.19.48-.35.66-.28.15-.47.2-1-.08-1.22C610.56,79.4,610,78.7,610.37,80.5Z" transform="translate(-34.22 -18.88)"/><path class="cls-1" d="M621,99c0-.23,0-.41,0-.56A2.59,2.59,0,0,0,621,99Z" transform="translate(-34.22 -18.88)"/><path class="cls-1" d="M613.2,79c-.19,0-.28.57-.54,1.25A1.25,1.25,0,0,0,613.2,79Z" transform="translate(-34.22 -18.88)"/><path class="cls-1" d="M664,242.18l-.26-.49-.8,1c.89,1.63,2,1.74,3.36,2.19-1.24-1.54-.62-2.44-1-4.37Z" transform="translate(-34.22 -18.88)"/><path class="cls-1" d="M672.83,241.17c.35-.19,1.24-.68,1.33-1l-.81-.25Z" transform="translate(-34.22 -18.88)"/><path class="cls-1" d="M673.34,217.28l-.05,2.25C674.15,219.9,674.6,217.06,673.34,217.28Z" transform="translate(-34.22 -18.88)"/><path class="cls-1" d="M661.78,229.42l1,.54c.56-.85.3-1.78-.67-1.65C662.8,229.07,661.64,228.68,661.78,229.42Z" transform="translate(-34.22 -18.88)"/><path class="cls-1" d="M671.53,212c-1.66.34-.3-2.35-1.78-1.81C670.38,210.37,670.09,212.77,671.53,212Z" transform="translate(-34.22 -18.88)"/><path class="cls-1" d="M658.6,221.35c-1.15,1.09.21,1.08.13,2C658.55,222.77,659.71,221,658.6,221.35Z" transform="translate(-34.22 -18.88)"/><path class="cls-1" d="M662.46,206.08c.88-.93,1.33-.22,1.62.74-.43,0-.93.32-1.27.15a9.09,9.09,0,0,1,2.48,1.28c0-1.59-.75-3.56.39-4.58C664.33,203.74,662.47,204.43,662.46,206.08Z" transform="translate(-34.22 -18.88)"/><path class="cls-1" d="M657.63,219.77c-.1.86-.87,1.79-.48,2.38.66-.53,1.57-1.4,1-2.12l1.3-.48C659.93,218.18,658.06,220.88,657.63,219.77Z" transform="translate(-34.22 -18.88)"/><path class="cls-1" d="M660.65,199.4l.1,1c1.66,0,2.61,1.85,4.34,1C663.75,200.1,661.74,199.06,660.65,199.4Z" transform="translate(-34.22 -18.88)"/><path class="cls-1" d="M658.05,215.27l-1.51,1.29c.29.92.45-.52,1-.58-.06.41,0,.85.42.76C657.11,216.07,659.08,215.6,658.05,215.27Z" transform="translate(-34.22 -18.88)"/><path class="cls-1" d="M654.77,214.55l-1.25-.05c-.26.81-.53,1.61-.82,2.37C654,217,653.53,215.91,654.77,214.55Z" transform="translate(-34.22 -18.88)"/><path class="cls-1" d="M654.65,212.44l.14-.42a17.32,17.32,0,0,0-2.84,1.51A15,15,0,0,0,654.65,212.44Z" transform="translate(-34.22 -18.88)"/><path class="cls-1" d="M636.86,189.87c-.33.91.7,2.29.32,1.15C637.5,190.27,636.08,188.78,636.86,189.87Z" transform="translate(-34.22 -18.88)"/><path class="cls-1" d="M639,208.4c-.4-.8-2.17.15-3,.7C637,208.77,638.92,209.71,639,208.4Z" transform="translate(-34.22 -18.88)"/><path class="cls-1" d="M635.69,209.31l.33-.21A.7.7,0,0,0,635.69,209.31Z" transform="translate(-34.22 -18.88)"/><path class="cls-1" d="M597.52,201.28a.66.66,0,0,0-.44-.1Z" transform="translate(-34.22 -18.88)"/><path class="cls-1" d="M598.83,201.75c.53.87,2.22,1.57,2.9.87a21.14,21.14,0,0,0-4.21-1.34C598.05,201.62,598.29,202.72,598.83,201.75Z" transform="translate(-34.22 -18.88)"/><path class="cls-1" d="M591.05,190.12c.78.37,1,1.4,1.56.7C592.72,190.26,591.31,189.38,591.05,190.12Z" transform="translate(-34.22 -18.88)"/><path class="cls-1" d="M616.92,128.24c.61-.63.44-1.22-.72-1.45C616,127.69,616.76,127.47,616.92,128.24Z" transform="translate(-34.22 -18.88)"/><polygon class="cls-1" points="582.04 106.78 582.61 106.9 583.59 106.72 582.04 106.78"/><path class="cls-1" d="M619.45,120.34a1.25,1.25,0,0,1,.38.58C619.77,120.49,619.7,120.13,619.45,120.34Z" transform="translate(-34.22 -18.88)"/><path class="cls-1" d="M619.85,121.13a.75.75,0,0,0,0-.21Z" transform="translate(-34.22 -18.88)"/><path class="cls-1" d="M619.39,121.41l.57.31a2.7,2.7,0,0,1-.11-.59C619.84,121.31,619.72,121.47,619.39,121.41Z" transform="translate(-34.22 -18.88)"/><path class="cls-1" d="M620.15,118.5l-2,.57c.5,1.58,1.24-1.1,2.7.83Z" transform="translate(-34.22 -18.88)"/><path class="cls-1" d="M620.78,114.09c.86-1-1.54-3.61.63-3.67-.41-3.72-3.52-.22-3.57-4.23-1.72,3.26,3.56,2.92,1.81,5.85C621.19,110.84,620.47,113.45,620.78,114.09Z" transform="translate(-34.22 -18.88)"/><path class="cls-1" d="M617.26,113.5c1,.52,1.45-.87.84-1.58C617.92,112.34,616.31,112.58,617.26,113.5Z" transform="translate(-34.22 -18.88)"/><polygon class="cls-1" points="586.98 88.25 587.96 87.4 587.36 86.96 586.98 88.25"/><path class="cls-1" d="M622.33,103.24l1,1.31C623,104.12,623.26,102.52,622.33,103.24Z" transform="translate(-34.22 -18.88)"/><path class="cls-1" d="M624.49,97.6c.52-1-2.16-2.24-1.79,0l.17-.48C623.28,97.28,624.39,96.24,624.49,97.6Z" transform="translate(-34.22 -18.88)"/><path class="cls-1" d="M620.42,83.44c0,.73.42,1.57,1,1.38l-.72-2Z" transform="translate(-34.22 -18.88)"/><path class="cls-1" d="M613.66,84.35c-1.68.7.35,1.58-.28,2.74A4,4,0,0,0,613.66,84.35Z" transform="translate(-34.22 -18.88)"/><path class="cls-1" d="M622.63,80.8c.74.47.37,1.42.3,2C623.87,82.4,623.5,80.94,622.63,80.8Z" transform="translate(-34.22 -18.88)"/><path class="cls-1" d="M621.7,77.57c.54-.86,1,0,1.32-.7.46-1.73,0-3.42-1.09-4-.61.65-2.4,1.76-3.35,1.44,1,2,4.42,2.6,2.18,4.24,1,.43,2.07.91,3.11,1.42C624.15,78,621.74,78.91,621.7,77.57Z" transform="translate(-34.22 -18.88)"/><path class="cls-1" d="M616.56,82.93l.89-1.24c-.93.36-1.17-.45-1.53-1C613.79,81.35,616.38,82.29,616.56,82.93Z" transform="translate(-34.22 -18.88)"/><path class="cls-1" d="M616.82,65.05c-.53-.75-1.15-1.46-1.72-2.16l.32.87C615.89,64.18,616.39,64.6,616.82,65.05Z" transform="translate(-34.22 -18.88)"/><polygon class="cls-1" points="582.38 44.13 582.88 43.68 580.86 42.49 582.38 44.13"/><polygon class="cls-1" points="581.52 40.97 581.62 41.34 582.91 42.5 581.52 40.97"/><path class="cls-1" d="M612.49,54.56l-.3,1.19c.64.37.78,2.34,1.61,1.24A2.36,2.36,0,0,1,612.49,54.56Z" transform="translate(-34.22 -18.88)"/><path class="cls-1" d="M591.75,71.8a5.07,5.07,0,0,0,.35-2l-.59,1.72C591.59,71.47,591.77,71.35,591.75,71.8Z" transform="translate(-34.22 -18.88)"/><path class="cls-1" d="M591,68.56c-.37.66-.71,1.32-1,2,.83.49,1.18-1.21,2-1.37-.22-.77-1,.72-1.3.06Z" transform="translate(-34.22 -18.88)"/><path class="cls-1" d="M571.46,71.86c-.42-1.29-.58-1-.17-2.25-.7,1.43-1.66,1.71-2.74,2.63.55.62.35,2.46.62,1.86l.91-1.52.19,1C571.55,73.9,570.23,71.81,571.46,71.86Z" transform="translate(-34.22 -18.88)"/><path class="cls-1" d="M535.05,130.63a2,2,0,0,0-1.49.63C534.31,132.43,534.91,130.38,535.05,130.63Z" transform="translate(-34.22 -18.88)"/><path class="cls-1" d="M357.76,644.42c2.66-4.43-1.4-.77-5.43,1Z" transform="translate(-34.22 -18.88)"/><path class="cls-1" d="M352.33,645.4l-3.82.72A6.76,6.76,0,0,0,352.33,645.4Z" transform="translate(-34.22 -18.88)"/><path class="cls-1" d="M317.37,655.22c7.21-5.61,17.54-5.33,21.52-11.13C330.28,644.41,318.17,650,317.37,655.22Z" transform="translate(-34.22 -18.88)"/><polygon class="cls-1" points="295.65 634.61 296.1 632.03 290.05 638 295.65 634.61"/><polygon class="cls-1" points="301.1 634.88 299.9 634.41 289.68 640.59 301.1 634.88"/><path class="cls-1" d="M290.4,664l7.68-3.79c8.18.09-3.75,6,1.72,6,9.77-3.88,1.66-7.64,14.23-11.38-1.74-2.52-19.68,7.67-18.91,2.49C284.41,660.19,295.34,660.22,290.4,664Z" transform="translate(-34.22 -18.88)"/><path class="cls-1" d="M271,915.33c.43.19.78.25,1.16.39C271.66,915.24,271.18,914.9,271,915.33Z" transform="translate(-34.22 -18.88)"/><path class="cls-1" d="M401.86,889a27,27,0,0,0,5.44-.66,6.06,6.06,0,0,0-2.32-.58C404,888.15,402.91,888.59,401.86,889Z" transform="translate(-34.22 -18.88)"/><path class="cls-1" d="M187.34,924c-1.9-.65-3.64-1.13-5.24-1.51C183.07,923.25,184.62,923.84,187.34,924Z" transform="translate(-34.22 -18.88)"/><path class="cls-1" d="M300.87,538.89A2,2,0,0,0,302,538l-.19-.23-1.79.35Z" transform="translate(-34.22 -18.88)"/><path class="cls-1" d="M537.71,822.21a47.26,47.26,0,0,0,5-3.67C539.65,820.36,538.28,821.44,537.71,822.21Z" transform="translate(-34.22 -18.88)"/><path class="cls-1" d="M141.25,915.13a16,16,0,0,0,1.84.78l-2.16-1.39.23.58Z" transform="translate(-34.22 -18.88)"/><path class="cls-1" d="M358.54,893.19a25.65,25.65,0,0,0,4.79-.44A23.32,23.32,0,0,0,358.54,893.19Z" transform="translate(-34.22 -18.88)"/><path class="cls-1" d="M171.5,718.54a14.59,14.59,0,0,0-5.21,3.87C167.9,722.16,169.63,721.16,171.5,718.54Z" transform="translate(-34.22 -18.88)"/><path class="cls-1" d="M129.16,750.24a1.19,1.19,0,0,1,.23-.22C128.88,749.76,128.82,750,129.16,750.24Z" transform="translate(-34.22 -18.88)"/><path class="cls-1" d="M103.8,774.65l.35-.57C103.65,774.1,103.45,774.21,103.8,774.65Z" transform="translate(-34.22 -18.88)"/><path class="cls-1" d="M166.29,722.41c-4.32.75-7.87-3.66-9.81,5.19l1.28.11c-3.38.66-6.39,5.73-9.43,8.26a5.22,5.22,0,0,0,1.83.51c1.61-1.11,3.79-2.48,7.21-4.39C161.79,730.56,163,726.17,166.29,722.41Z" transform="translate(-34.22 -18.88)"/><path class="cls-1" d="M270.52,916.55c-.51-1.17-3.67-.4,0,0Z" transform="translate(-34.22 -18.88)"/><path class="cls-1" d="M229.49,922.77l4.07.24A11,11,0,0,0,229.49,922.77Z" transform="translate(-34.22 -18.88)"/><path class="cls-1" d="M95.32,873.17c0,.25.06.44.07.68C96,873.67,95.67,873.29,95.32,873.17Z" transform="translate(-34.22 -18.88)"/><path class="cls-1" d="M237.3,923.09c-1.25,0-2.5,0-3.74-.08A8.2,8.2,0,0,0,237.3,923.09Z" transform="translate(-34.22 -18.88)"/><path class="cls-1" d="M125.13,905.9a4.22,4.22,0,0,0,.49.47A1.58,1.58,0,0,0,125.13,905.9Z" transform="translate(-34.22 -18.88)"/><path class="cls-1" d="M312.15,185.93c-3-.28-4.38-2.45-7-3.75-6.85,2.52,12.61,3.72,3.06,4.94a24,24,0,0,0,7,.79l-3.11-5.07C306.44,182.83,315.45,185.21,312.15,185.93Z" transform="translate(-34.22 -18.88)"/><path class="cls-1" d="M269.18,510l1.05,1.07c-.09-2.16.85-2.17-3.29-6-5,0-.59,7.66-8.6,6a19.66,19.66,0,0,1,5,3.49C261.58,510.56,265.35,510,269.18,510Z" transform="translate(-34.22 -18.88)"/><path class="cls-1" d="M263.38,514.6a1.73,1.73,0,0,1,.11.32,8,8,0,0,0,.6,1.53,13.66,13.66,0,0,1,2.54,2.12A13.51,13.51,0,0,0,263.38,514.6Z" transform="translate(-34.22 -18.88)"/><path class="cls-1" d="M215.75,177.09l-3.25.15C214.15,177.76,215.08,177.59,215.75,177.09Z" transform="translate(-34.22 -18.88)"/><path class="cls-1" d="M548.38,873.89c-1.3,1.17-2.56,2.36-3.54,3.38A10,10,0,0,0,548.38,873.89Z" transform="translate(-34.22 -18.88)"/><path class="cls-1" d="M334.36,553.13a24.55,24.55,0,0,0,3.16,2.45l2.21,1Z" transform="translate(-34.22 -18.88)"/><path class="cls-1" d="M102.34,428.92c4.68-1.23-1.88-1.37-4.51-8l-5.24-2.54C95.71,422.87,99.4,426,102.34,428.92Z" transform="translate(-34.22 -18.88)"/><path class="cls-1" d="M315.45,188.29a1.12,1.12,0,0,1,.13-.39h-.37Z" transform="translate(-34.22 -18.88)"/><path class="cls-1" d="M39.59,246.58c.62-1.13,1.16-2.14,1.75-3.22A15.71,15.71,0,0,0,39.59,246.58Z" transform="translate(-34.22 -18.88)"/><path class="cls-1" d="M288.61,532.53l16.77,10.29-4.51-3.93C297.67,539.57,292,531.47,288.61,532.53Z" transform="translate(-34.22 -18.88)"/><path class="cls-1" d="M168.06,491.92l.18,3.49c18.89,7.71,34.23,28.74,51,30.56,16.42,22.41,16.86,1.31,32.17,21.25l-.09-1.64c30.69,20.48,62.62,40.84,94.9,58.83s64.62,33.81,97.22,44.29l-.64,1.82,9.17,3.75,8.21,3.89,17.61,8.45c11.66,5.69,23.16,11.53,34.41,17.64,22.37,12.24,44.33,25.54,62.22,41.4,8.92,7.8,16.58,16.59,20.94,24.52a30.34,30.34,0,0,1,3.65,10,18.59,18.59,0,0,1-.46,7.81,20.85,20.85,0,0,0-.82,2.38c-.24.83-.85,1.74-1.22,2.64l-.6,1.37-.91,1.43-.36.59,0,.07a.33.33,0,0,1-.08.16L582.66,788,568,799.93l-15.57,11c-7.06,7-.63,7.5-6.74,14-3.13,1.77-10,6.36-10.9,4.21,5.41-4.91,1.27-4.72,2.91-6.84-2.41,1.6-5.07,3.13-7.81,4.67L521.27,831a67.81,67.81,0,0,0-15.21,9.69c2.94-.24,5.73-.82,8.62-1.23a22.5,22.5,0,0,1-6,4.07l-6.26,2.61c.85-2.14-5-3-2.39-5.07-8.46,8.33-12.56,9.44-16.37,9.77-3.89.17-7.53-.43-15.41,4.58-.77,3.75-5.91,9.52-12.75,14.93s-15.14,11.21-21.72,16.13l-7.95.73c10-3.24-1.19-4.39,11.15-8.47-10.64,1.89-19.69,7.33-29.67,9.51,2.24,1,2.19,3.29-1.61,5.27-6.25.87-7.43-2.35-14.41-.82l6.45-3.84c-5.06-1.22-8.41,3-12.62,4.55-1.88-2.35-12.26-.14-10.94-3.65-8.71,5.93-12.38,4.35-22.12,8.9,10.93.67-2.19,4.18-.71,6.22l11.75-3.6c-17,1.7,5.39-1.63,3.39-6,8.22.5-9.63,10,3.48,6.46A164.2,164.2,0,0,1,352.63,907a150.42,150.42,0,0,0-17.57,6c9.77-2.44-1.52,3.35,4,4-12.57,2.16-3.32-1.15-7.56-3.56-6.81,1.2-9.57-1.08-15.5,3.39-11.19.32,1.31-3.8-4.44-4.84,3.71-3.89,31.08-.84,26.83-10.68,5.69-1,12-6.63,20.18-8.06-7.32,0-17.8-.83-26.34,2.66l.24,5.9c-6.7,1.19-7.67,5.38-12.6,5.63,2.41-2.1-2.49-3.82-7.86-2.49,1.62.59,3.77.06,3.27,1.17-10,2.15-11.07,5.82-23.07,8.32,10.08.38,12.3,2.25,21.88,3.36-2.13,4.56-6.54,1.56-12,2.58.78-.65,1.92-.88.23-1.52l-5.73,2.58c-12.63-.47,1.12-6.1-9.27-7-7.29-2.79-9.57,3.14-15.14,1.36.38.35.77.73,1.12,1a21.38,21.38,0,0,1-2.73-.16.75.75,0,0,1,.11.28c-6.59.93-13.7.95-15.49,4.12-.74-1.36-5.8.69-7.95,1.75-3.66,1.6-12.56,5.1-18.11.1.14,0,.28,0,.41,0-8.29-.65-14.71-2.25-12.9-3.9-4.43-.53-8.87-.7-13.27-1.54l1.53-3.9c-12.06.27-10.94,2.69-19.46,6.27a35.51,35.51,0,0,0-7.43-1.54c-1.36-.16-2.77-.27-4.18-.34s-2.86-.1-4-.21c-4.84-.18-9.85-.68-12.61-.66a29.93,29.93,0,0,0-4.46-1.3c1.44,1,2.9,2,4.37,2.93-8.75-2.76-8.17-.52-14-2.67,1.12.79,1.21,1.14-1.84-.78l-3.21-1.7c.41-.27,1.67.34,2.89,1.09l-.67-1.71c-5.59-6.88-11.19-2.59-17.79-8a19.87,19.87,0,0,1,2.66,1.09c-3.68-3.24-6.61-11.7-9.46-9.83-.63-1-2.21-1.27-3.8-1.5l-2.2-2.6a33.48,33.48,0,0,1,2.16,2.58c-2.06-.35-4.26-.46-4-1.33a47.54,47.54,0,0,1-4-4.19l-1.91-2.13-1.66-2.27a11.24,11.24,0,0,0-2.14-2.87,23.15,23.15,0,0,0-2.39-2.61l.12-2.48c-1.74-3.19-1-3.65-.51-3.5,0-.86-.24-1.63-.23-2.36a16.79,16.79,0,0,0,0-2A11.68,11.68,0,0,0,94.8,867c-.1-.73-.19-1.44-.28-2.14-.56-2.84-1.09-5.5-1.62-8.2-1-5.35-1.41-11.69,2.45-18.46-.73-1.82-1.74-1.32-2.76-.25s-1.85,2.7-2.52,2.79c-1.53-3-.28-13.25.79-18.66,2.93-2.85,7.66-9,12.43-13s8.93-6.26,9.58-3c8.33-10.39-4.66,1-1.76-5.61l1.09-1.12a24.67,24.67,0,0,1-9.52,6.17c-1.26-.46-.3-3.5,1.45-6.73a30.66,30.66,0,0,1,5.86-7.69l.84,5.06c7.36-11.07,2.12-13.55,5.53-23,8.5-6.33,6.13,1.06,9.71,2.42,2.46-2.77,4.9-5.58,7.46-8.25L135.1,770c4.83-5.3,4.7-8.84,12.87-13.88-4.15,6.76,12.79-6.3,7,3,4.67-2.28,3.29-8.43,7.29-6.4,1.54-5.09-4.58,1.35-7.21,2.05-3.91-2.86,8.44-9,13.26-13.66,1.48,1.91-2.3,5,4.6,2.24.49-2.53,3.92-6.49,8.42-6.7-1.24-2.84,7-5.12,10.66-7.11-4.31,1.9-11.08,3.51-9.47-.6,2.7-3.11,5.21-5.42,12.74-9.37l-5.62,1.66c4.75-8,11.86-3.23,20.17-9.45-3.06,3.82-5.4,5.09-7.79,9.06a195.44,195.44,0,0,1,16.81-15.06l9.06.36c.18-2.66,8.56-4.11,7.55-7.05,10.11-2.69-6.38,7.3-6.51,10,12.4-4,7.74-9.71,20.62-10.65l-2.86,4.57c3.82-1.62,10.92-6.76,11.84-5.58-.32-1-2.1.29-4.47,1.39.4-7.09,16.31-12.23,13-17.75l-5.44,2c7.77-4.86,12.38-11.6,19.35-12.09,5.44,0-2.19,5.65-4.57,8.5,7.82-2.89,4.27-9.52,13.72-12.76-5.16,1-4.87-1.6-2.38-4.41-5.51,1.79-17.08,5.4-14.33,7.17l2.12-.23c0,1.81-2.76,3.67-4,5.11-7.29,3.18-4.24-1.31-6.07-1.87-12.44,4.44.9,6.6-10.21,11.41l-1.82-.52c-4.81,4-12.87,8.16-13,12.61-6.12-1.65-11.77,7.67-17.76,8-4-8.16,18.64-8.82,23.3-16.4-6.35,1,1.93-5.75,3.75-8.85q-8.56,6.15-17,12.52c-1.84-.47-8.66-2.1-10.84,2.74l1.49-.53c-6.83,4.67-3.62,7.19-10.2,9.28-1.24-.27.15-2.65.41-3.48-6,2.29-4,4.47-7.49,7.33-5.93,2.37,1.51-5.06-3.57-3.38-5.3,6.92-10.65,5.09-16.23,8.64,4.22,3.23-19.31,20.13-5.61,16.82q-5.88,5.73-11.56,11.66c-5.19.29,5.93-12.47.58-14l10.64-6.58c-2.12-2.38-7.32,2.05-13.08,7s-12.07,10.4-17.06,9.81c-5.63,3.87-3.86,3.48-15.64,9l4.48,3.49c-5.87,3.08-9.06,2-9.84,1.31a104,104,0,0,1-8.59,7.65A10.13,10.13,0,0,1,123.2,753c-5.57.89-6.07,3.07-6.52,5.66-1.3,3.17-4.52,6.05-7.62,9.31.52-1.53,1-3.1,1.61-4.6-1.67,2.33-3.61,5.33-3.23,6.33a24.65,24.65,0,0,0-3.29,4.37,19.44,19.44,0,0,0,10.42-3.28,127.34,127.34,0,0,0-15.93,15.67c-4.77,5.33-9.21,10.66-14.68,16.12-1-1.49,1-8.39-.17-6.8-4.77,6.33-6.32,16.15-4.1,16.57-.61,1.75-1.07,3.1-1.53,4.25-1.7.76-3.59,1.95-5,5.74-.72.68-1.58,2-2.48,4.87,1.4,2.12.75,7,.18,12-.18,2.52-.51,5-.53,7.18a14.69,14.69,0,0,0,.55,4.82c.5-3.92.88-8.66,1.55-13.44,1.47,7.54,4,13.23,2.19,18.32-1.4-6.13-2.32-3-3.09-.25s-1.54,4.64-2-5.38a16.85,16.85,0,0,0-1.51,7.42,5.34,5.34,0,0,0,1.46,3.42c1.55,1.79,3.1,3.48,3.61,10.66-.14,3.16.53,6.95.94,10.58-1.51,0-3.27-4.19-4.38-7.93-.77-3.38-1.2-6.38-1.52-5.14.57,2.28.89,4.29,1.71,6.75-1.11-1.77-1.74-4.35-2.65-8a90.55,90.55,0,0,1-1.52-12.88c-.56-9.65.54-20.4,1.13-28.76a106.61,106.61,0,0,0-4.91,33.49q.67,4,1.37,8.16.91,4,1.86,8.07c1,3.15,2,6.31,3.14,9.42,1.24,2.89,2.67,5.56,4.06,8.31a92.11,92.11,0,0,0,20.11,24c14.27,12.11,29.12,18.72,41.86,20.18l-1-.34c.5-.14.87-.65,1.54-1.73l.82,1.25,5.28-.67c4.51,5.05,14.31,9,23.52,12.92-5.66-3.11-5.51-3.22-5.73-5.81,1.71-3.24,2.49-4.11,10.8-1.8-.07,2.39-5.33,1.7.76,4.35-3-1.47-.06-2.86,3.29-3,4.3,1.86,11.62,2.68,11.6,5.12-2.08.52-3.69-.42-5-.87-2.09.51,8.2,2.73,2,4.31l8-.16c4.59,2.33-3.24,3-1.44,4.4a68,68,0,0,0,16.75-3.33c4.93-1.71,9.66-3.52,15.67-4.29a19.73,19.73,0,0,0-.62,5.13c9.3,1.54,19.89-5.36,30.31-6.59-1.5,1.68-5.44,1.23-8.6,2.16,32.19.67,58.48-1,89.07-1l7.18-6.73,8.28,2.41c8-.78,15.45-1.9,22.62-3.27,3.59-.7,7.11-1.43,10.57-2.25l10.21-3c6.74-2.11,13.4-4.37,20.2-6.69l20.85-8.07c9.06-3.22,6.34,2,11,2.14,20.08-6.94,23.54-14.13,41.72-23.49-2.08,2.7-5.18,9.11,3,5.86,1.06-2.16,1.32-4.94,6.68-6.19l-2.09,2.71c2.68.16,5-.76,7.85-2.19a77.83,77.83,0,0,1,11.14-5.37c4.2-2.08,8.27-4.37,12.19-6.81A112.39,112.39,0,0,0,533.73,879a117.67,117.67,0,0,0,18.84-19.11c14.34-8.41.83,6.22,3.95,5.61-10.83,4.51-6.63,5.32-8.14,8.36,4.81-4.72,10.84-9.67,15.16-7.9a108.73,108.73,0,0,0,9-6.25,62.62,62.62,0,0,0,7.92-8.33c-3.06,3.76-7,4.13-4.42.15,3.25-1.53,8.49-5.33,13.08-8.15,4.52-3,8.35-5.28,9.1-2.86,4.14-3.62,8.42-7,12.62-10.91l12.92-12.59c1.33-1.35,3.31-2.88,4.41-5.18l3.55-5.77c2-3,3.59-7,5.34-10.56a84.77,84.77,0,0,0,6.52-26c.61-4.71.26-9.51.09-14.28a91.41,91.41,0,0,0-2.41-13.6,94,94,0,0,0-9.3-23.06,140.45,140.45,0,0,0-25.41-32c-7.33-3.88,4,5.23-.21,3.4-5.16-3-6.7-4.66-7.95-6.53s-2.29-3.41-6.49-5.28l4.24.24c-10.54-9.44-24.29-13.35-35.78-17.89,3-1.58-7.74-7.87,1.81-3.81-5.33-2.88-6.64-19.09-11.86-19,.46,5,.88,10,1.25,15.06-.75.89-7.81-4.09-7.39-2.9-3.64-5-8.31-10.8-11.53-12.56-.46-3.84,7.4,1.26,11.79,3.85,2.62-4.56-13.78-11.53-5.6-12.45-9.91-4.4.42,3.25-6,2l-8-5.49,5.85,5.07c-7.53-2.23-11.22.32-19.55-7.11l-11.3.2c.33-4.46-6.81-4.09-11.48-7.31l3.93-1.1c-6.67-2.93-9-4.8-12.73-8.12,4.84-1.85,5.76,3.56,8.41,1l-7-4.49c-.67,2.28-5.86,2-1.05,5.7-4,.61-7.23,1.37-11.77,1a71.71,71.71,0,0,1-7.82-1.39A63.86,63.86,0,0,1,450,605.14c-6.3-6.92,8.93-.28,6.89-5.43-16.33-8.39-23.73,1.49-33.61-3.45-12.23-7.43-12.64-3.54-25.61-9.49,4.95-.62-8.05-7.17-9.53-10.86l6-.19c-4.16-1.12-7.53-4-5.73-5.33-.51,3.93-17.67-5-27-8l.45,3.79c-7.21-2.58-17.37-5.83-24.3-10.57-11.08-5-9.65-1-19.16-2.49-3.51-5.25-1.77-8.09,1-10.45,2.26,3.12,7.43,5,11.79,8.54,14.53,5,27.38,4.4,40.43,12.9,8.48-4.18-9.47-3.89-15.12-10,.35-.32.88-.21,1.41,0a7.85,7.85,0,0,1-1.57-1.09c5.17,1.71,13.5,4.73,16.14,1.69-8.36-3.5-8.51,4.17-17.44-4.32-8.21-2-12.12-11-16.39-14-5.94-.06-8.39,5.58-20.06-2.45l6.87-1c-13.6-7.93-8.74,2.2-21.29-5.4,4.25,3.1-5.88,1.36,2.52,6.46-5-.32-14.4-5.4-20.73-10.72-2-.49-.94,1.11-1.83,2.25,6.43,7.36,13.08,4.6,17.71,12.24l7-1.16c6.48,5.67,5.85,9.55.8,8.71,2.09,1,4.08,1.42,5.25,3-1.35,7.18-7.64-7.25-12.31-3.22l5.23,2.47c.51,5.48-13.28-3.18-19.61-7.41-6.52-6.34-12.84-11.21-12.06-14.49l10.29,4.7c-4-5.49-13-6.22-18.63-9.93a5.15,5.15,0,0,0-1.17-1.92,1.44,1.44,0,0,1,.1,1.11,8.87,8.87,0,0,1-2.64-3.23c-4.85-3.31-12.89-6.17-17-10.15l-.63,3,1.29-1.08c4.42,3.09,9.82,8.66,5.52,8.43-11-4.83-10.72-11.28-12-15.19,4.15-2.45,9.81,6.59,15.6,8.56-1.3-6-10.12-7.11-19.23-16.77,6.14-1.57,12,8.15,16.11,5.58-8-6.25-11.62-4.63-19.81-11.72,2.06-1.21,10.64,4.35,11.29,1.37l-5-5c13.81,9,.15-7,11.3-.9-4.17-5.18-8.7-1.15-14.47-8.84,1.06,3.25,5.12,10.65-2.5,7.63l-7.08-6.66c-2.18-4.34,10.2,1,6.07-4.24l-8.68-4.2c-.36,1.47,3.15,4.84-.12,4.9-3.95-4.64-10-.52-16.41-2.6-4.24-3.33-7.51-6.16-8.25-8.77-12.74-4.46-26.08-15.42-37.64-20.29,8,3.16,2.17-4.38-.56-9.56,7.74,5.94,10,2.12,11-.76-4.72-3.44-10-2.08-8.52,1.16-6.51-8.18-6.81-1.93-11.71-10.39-3.34-5.15,4.41-1.75,3.86-4.48-7.7-7.49-5.1,2.61-12.95-6.4.79,0,1.65.55,1.44-.77-4.05-5.1-9.89-8.3-12.13-7.5-1.4-9.39-13.3-13.43-9.05-16.84-10.94-10.25-.39,4.07-3.51,3.32-5.76-2.73-11.85-13.41-13.44-16.91,2.42,2.89,5.47,4.52,7.3,7.92l.37-5.36c-5-8.35-8.09-9.13-11.2-10S97,361.06,93.18,352.22c6.56,6.58,3.76.7,8.19,2.72-2.37-1.57-8.94-14.25-6.56-5.11a87.43,87.43,0,0,1-6.71-14.94c-3.81-4.41-7.17-9.72-10.44-11.84-3.2-9.07-2.07-16.57-1.54-20.89-2.83-8.55-2.56-17.25-.87-25.22s4.7-15.58,8.08-24.63l-.88,1.06c3.92-6.09,2.19-5.55.44-5s-3.76,1,.6-5.81c1,2.44,3,1,5.11-1.3S93.71,236,96,235c6.23-5.86,13.27-11.69,19.14-17.81a63.54,63.54,0,0,1,20.94-14.83c.29,1-.2,2.79-3.05,4.86,3-1.58,5.83-3.21,8.52-4.88s5.45-2.77,8-4.22l7.78-4.23a49,49,0,0,1,8-3.88l-.3.78c9.54-1.42,17.67-5.7,26.41-8.5,4.32-1.57,8.6-3.63,13.1-5.14,4.53-1.31,9.17-2.62,14-3.73-1.52.89-1.74,2.85-2.87,3.72,2.45-.11,5.25-.35,8.18-.65,3,0,6.06-.15,9-.46,6-.58,11.58-2.13,15.1-4.07,5.89,2.71,7.8,2.39,10.2,2.07s5.23-.89,12.61,2.63c.8,1-1.56.64-2.57.71a56.4,56.4,0,0,0,9.9,2.51,65.33,65.33,0,0,1,10,2.06c8.37.23,13.93-1.42,19.73-1.57a45.42,45.42,0,0,1,21.28,4.39c-.3,3.55-3.27,2.68-6.44,2.11s-6.45-1.51-7.19,1.08c4,0,7.65-.77,12.45,2.83-3.7,1.46-1.06,1.39-3.74,3,3.44,3.14,17.57-1.11,17.39-.5.56-1.18-.63-2.36-4.43-3.53,5.56-2.74,18.63,7.09,28.2,9.43-2.92-1.38-11.87-6.67-7.46-8.21a30.69,30.69,0,0,0,14.58,4.1c4.16.12,8.06-.46,12.82.42,10.27,8.47-10.23,1.16-9.59,6.68,1.33,2.56,4.5,8.29-.72,7.73,9.58,5.63,17.86,6.25,27,10.07l-.73,1.09c6.12,3.33,12.9,5.8,19.37,8.4,6.4,2.77,12.36,6,16.79,10.49L432.9,235c2.27.64,8.15,4.89,12.53,5-1.29,1.7,5.44,9,1.53,8.31,8.36-2.6,28.27,16,37,15.15,2.2,4-1.61,4.43-3.29,5-6.81-6.46-8.72-9.44-13.82-10,6.11,4.57,9.62,9.63,7.93,10.29,4,.57,9.74,3.4,15.15,6s10.33,5.07,12.92,4.52c3.22,5.53,6.64,10.13,3.3,11.83,18.83,14.26-3-17.29,17,1.07,7.24,11.32-11.34-4.33.52,8.3l-2.59-1.71c3.94,16.15,9.84.45,19.78,10.61-1.44,5.4-8.92-4-4,5.76,9.8,8,18,6.1,26,16.8l-2.61.2c6,5.69,16.25,18.42,21.91,24.39-.34,1.05-1,0-2.26-.94,8.87,13,5.83,2.91,11.71,15.08l3.73.94c-2.71-6.05-9.3-17.4-16.33-21.14,7.06,3.8-4.6-14.26.53-14.59l-2.08.14c-9.86-21.36-28.45-41.63-46.55-61.9-7.54-3.52-12.5-8.75-17.65-14.06-2.55-2.68-5.12-5.44-8-8.06a54,54,0,0,0-10.06-7c-5.05,3.41-3-1.28-15.65-9.52,6.71,4.29,2.88-3.34-.8-7.18-3.08-.46-6.15-2.3-9.34-3.9-1.53-3.54-15-19.28-22.62-19.36-6.86-6.88,2.59-.51,4.8-.49-1.85-4.86-7.26-2.06-9-5.63a1.2,1.2,0,0,1,1.32-.23c-5.9-3.94-10.61-7.11-15.29-10.55S419.29,181,413,177.12c-3.24,5-13.27-5.19-19.86-5.94,2.52-.86-6.6-5.74-10-8.64-2.81.26-5.54.38-8.38.81-8.11.55-9-6.75-18.71-8.74l1.91,2c-3.53-.69-9.6-3.12-15.47-6.45-2.94-1.63-5.85-3.44-8.42-5.13a52.33,52.33,0,0,1-6.41-4.33c-33.23-3.72-58-8.44-84.43-11.21l-20.1-.92c-6.85-.2-13.84.68-21.17,1.23l-5.54.55c-1.85.31-3.71.76-5.59,1.17q-5.66,1.25-11.56,2.76c-8,1.63-15.87,5.5-24.35,9.14-3.91,3.49,4.08,1.59,1.37,5.51-6.67,3.25-8.15,4-14.11,7.24,5.79-1.29,4.31-2.7,4.16-.79l4.31-3.17,4.5-2.7c.59.23-.41.82.74,1.27,3-1.79,6.46-4.44,10.64-5.77-5.51,3.84-5.9,8.69-14.3,10.27.43-.82,1.4-1.41,3.39-2.61-6.73,2.18-6.23,4.8-11.39,6.08-6.13,2.17-4.25,2.68-5.65,1.3l-9.5,3.73c-3.19,1.21-6.12,3.05-9.21,4.57A30,30,0,0,1,107.47,179c-2.21,1-4.21,2-5.87,2.88s-3,1.42-3.72,1.87c0-2.38,2.6-5,5.59-7.66,3.07-2.42,6.44-5,7.81-8.19l-7.61,1.79,1,3c-3.19,1.63-6.14,4-9.2,6.09l.21-.91c-.46,1.89-.94,3.79-3.67,4.72-.59-.06-1.85-.07-1-1l-5.35,6.59c2-5.67-5.92,3.73-7,0-2.65,1.69-5.09,4.43-7.25,6.72a65,65,0,0,0-5.67,6.77,110.31,110.31,0,0,0-8.05,12.58l-16.4,29.15c1.55-2,1.82,1,1.35,5.24-.26,2.13-.44,4.8-.89,7.35s-1,5.11-1.51,7.39c-1.74,5.06-2.68,6.36-3.25,2.6a110.28,110.28,0,0,0,.05,12.73c-1.64,3.75-2.21,7.69-2.72,11.78A76.67,76.67,0,0,0,34.64,303a283.14,283.14,0,0,0,5.49,28.14l-1.62-.49c3.86,7.05,7.92,14,12.13,24.26l-3.31-.15c4.35,13.44,9.46,5.63,15,19,2.3-2.13-.78-10.8,1-13.87-1.12,5,6.26,17.86,6.2,13.34,8.23,10.26,5,7.73,5.08,9.28,1.9,1.72,3.9,3.27,5.85,4.85,5.27,7.5-1.18,5.57-4.52,4.12,7.47,4.54,11.58,13.48,17.43,21.29L90,410.9c2.56,3.45,5.22,6.7,7.87,10,7,4.05,14.83,11.94,21.38,20.26-2.53-.38-5-.86-7.56-1.36,3.82,7.12,3.51,1.39,5.3,2.12,9.36,6.16,9.48,10.25,12.53,16.48C145.21,466.61,152.79,488.42,168.06,491.92ZM95.11,877.27l.27,1.54C93.11,876.68,92.14,875.44,95.11,877.27Zm70.27,44.05c-10-.24-6.6-2-7.08-3.37a41,41,0,0,0,11.81,2.94,78.67,78.67,0,0,1,12,1.64,6.78,6.78,0,0,1-2-3.16c3.62.47,7.2,1.75,8.33,4.25-2.37,2.24-9.39,1-15.23-.41a63.45,63.45,0,0,1-6.67-2.12C165,920.52,164.42,920.41,165.38,921.32ZM116.46,759.88c-.12.57-.27,1.19-.47,1.82l0,0ZM81.83,813c-1.18.34-2.2,1.68-3.28,3.43A4.88,4.88,0,0,0,81.83,813Zm37.65,117.62c1.71,3.13,7.45,5.4,11.66,6.67C129.28,936.26,126.07,934.18,119.48,930.59ZM549.85,657.3c3.18,1.08,9.43,2.67,5-1.69-3,0-6.6-5.45-9.61-4.26-.25-.26-.27-.33-.42-.5C547.15,654,549,656.67,549.85,657.3ZM258.09,524.78c1.27-1.4,4.16-1.95,3.41-4.12.22.19.49.44.73.64-.44-1-.81-1.9-.11-1.93-2.07-1.78-4.22-3.7-6-4.21C252.85,520.31,247.71,518.15,258.09,524.78Z" transform="translate(-34.22 -18.88)"/><path class="cls-1" d="M360.54,555.33c-1.12-.48-2-1-2.66-1.25C358.59,554.47,359.42,554.85,360.54,555.33Z" transform="translate(-34.22 -18.88)"/><path class="cls-1" d="M256.55,515.47c-.36.23,2,2.48,4.95,5.19C261.16,519.54,259.84,518,256.55,515.47Z" transform="translate(-34.22 -18.88)"/><path class="cls-1" d="M278.15,685.39l-2.7,1.86,6.3-.68c9-6.09,8.8-8.87,10.33-12.89-7.9,6.42-13.61,7.23-24.44,12.94Z" transform="translate(-34.22 -18.88)"/><path class="cls-1" d="M267.26,667.53c-1.23-.38-4.28-1.29-5.81-.84l-.9,2.46Z" transform="translate(-34.22 -18.88)"/><path class="cls-1" d="M150.74,721c3.16-1.61,6.35-3.1,9.52-4.61C162.4,713,150.85,717.39,150.74,721Z" transform="translate(-34.22 -18.88)"/><path class="cls-1" d="M202.46,726.16l3.82-4.54c-4.72.78-10.18,4.19-10.21,6.84C201.07,724.09,197.89,728.79,202.46,726.16Z" transform="translate(-34.22 -18.88)"/><path class="cls-1" d="M127.21,738.53c-.83,5.31-9.32,5.94-9.25,10.43C119.62,746.05,128.59,742,127.21,738.53Z" transform="translate(-34.22 -18.88)"/><path class="cls-1" d="M149.87,764c4.13,1.05,6.84-4.86,12.35-7.88C158,759.22,150.37,760.53,149.87,764Z" transform="translate(-34.22 -18.88)"/><path class="cls-1" d="M91.23,791.42c-1.45-2.26,1.6-6.36,5.4-10.32-.64,2-.57,3.92-1.78,6.17a71.21,71.21,0,0,1,4.59-8.58l4.39-6.8c-6,3.85-13.57,12.29-15,9.1C87,787.44,85.71,795.65,91.23,791.42Z" transform="translate(-34.22 -18.88)"/><path class="cls-1" d="M138.36,774.21c4.5-2.65,8.09-2.6,12.89-6.7-1.7-.89-4.7-2-10.14,3.25l.5-4.33C135.21,769,145.65,768.09,138.36,774.21Z" transform="translate(-34.22 -18.88)"/><path class="cls-1" d="M69.4,821.16,72,817.49c1.48-10.89,8.44-21.2,8.66-28a90.4,90.4,0,0,0-7.92,17.06A58.8,58.8,0,0,0,69.4,821.16Z" transform="translate(-34.22 -18.88)"/><path class="cls-1" d="M116.59,788.15l1.86,4c5.26-5.14-1.2-.7,0-3.48,1.8-1.13,4.24-3.14,4.85-4.94C117.79,790.52,120.85,781.41,116.59,788.15Z" transform="translate(-34.22 -18.88)"/><path class="cls-1" d="M104.74,811.08c-1.27,3-2.32,6.11-3.32,9.14,2.33-1.23,4.45-2.42,6.81-3.41C112.68,806.92,106.64,814.67,104.74,811.08Z" transform="translate(-34.22 -18.88)"/><path class="cls-1" d="M97,819.64l-1.08.55a79,79,0,0,0,0,15.69,68.78,68.78,0,0,1,.58-8.57C96.76,825.22,96.82,823.35,97,819.64Z" transform="translate(-34.22 -18.88)"/><path class="cls-1" d="M181.64,952c1.68-1.8-6.42-4.73-3-2.37C176.94,951.14,187.84,954.34,181.64,952Z" transform="translate(-34.22 -18.88)"/><path class="cls-1" d="M153.59,911.46c1.58,1.31,5.4,2.08,9.36,2.34a38.09,38.09,0,0,0,5.7-.11c1.72-.19,3.18-.36,4.7-.64a30.24,30.24,0,0,1-5.55-.21c-2.09-.32-4.39-.69-6.52-1.14C157,910.85,153.46,910.08,153.59,911.46Z" transform="translate(-34.22 -18.88)"/><path class="cls-1" d="M175.63,912.68c-.45.08-1.29.22-2.28.37A8,8,0,0,0,175.63,912.68Z" transform="translate(-34.22 -18.88)"/><path class="cls-1" d="M404.26,879.68a4.44,4.44,0,0,0,1.5-1Z" transform="translate(-34.22 -18.88)"/><path class="cls-1" d="M399.14,882.31c-3.74.33-10.72,3.36-11.61,5.71,5.53-2.53,10.53-4.22,16.73-8.34C401.84,880.75,398.48,880.09,399.14,882.31Z" transform="translate(-34.22 -18.88)"/><path class="cls-1" d="M450.22,866.25c-2.32,2.13-6.08,2.87-4.72,4.31C447.2,870.8,452.29,866.83,450.22,866.25Z" transform="translate(-34.22 -18.88)"/><path class="cls-1" d="M513.82,620.81c-4.67-3.44-7.85-4.1-7.37-.87C512.05,622.61,509.51,619.6,513.82,620.81Z" transform="translate(-34.22 -18.88)"/><polygon class="cls-1" points="465.65 598.5 465.39 596.9 462.75 593.37 465.65 598.5"/><path class="cls-1" d="M465.76,597.71a3.74,3.74,0,0,1,2.56-.26C466.1,596.9,464.23,596.72,465.76,597.71Z" transform="translate(-34.22 -18.88)"/><path class="cls-1" d="M469.45,597.75a10.41,10.41,0,0,0-1.13-.3Z" transform="translate(-34.22 -18.88)"/><path class="cls-1" d="M471.68,599.67l.83-1.23a24.11,24.11,0,0,1-3.06-.69C470.49,598.1,471.51,598.75,471.68,599.67Z" transform="translate(-34.22 -18.88)"/><path class="cls-1" d="M455.71,593.36l5.13,6.46c3.85.33,1.82-1,.15-2.5s-3.17-3.32.54-4.27Z" transform="translate(-34.22 -18.88)"/><path class="cls-1" d="M433.51,585.2c-5.61-4-16.29-1.73-18.2-8-17.84-5.68,1.4,9.75-18.74,2.07,17.72,11.35,12.36-4.4,27.91,5.82C417.48,578.51,430.52,585.19,433.51,585.2Z" transform="translate(-34.22 -18.88)"/><path class="cls-1" d="M434,594.42c1.7-1.91-5.91-5.55-8.8-5.07C427.35,590.61,430.2,595.68,434,594.42Z" transform="translate(-34.22 -18.88)"/><polygon class="cls-1" points="365.31 552.82 360.72 548.48 358.86 549.29 365.31 552.82"/><path class="cls-1" d="M380.19,560.94l6-.13C384.14,561,376.67,557,380.19,560.94Z" transform="translate(-34.22 -18.88)"/><path class="cls-1" d="M354.23,543.33c-4.34-3.43-10.9.39-.48,4.43l-2.18-1.45C352.51,545.67,348,540.61,354.23,543.33Z" transform="translate(-34.22 -18.88)"/><path class="cls-1" d="M288.48,517.26c3.11,2.08,7.19,3.56,7,1.91l-9.19-4.06Z" transform="translate(-34.22 -18.88)"/><path class="cls-1" d="M283.61,532.68c1.43,5.43,8.36,4.72,13.73,9.38C291,537.42,292,537.34,283.61,532.68Z" transform="translate(-34.22 -18.88)"/><path class="cls-1" d="M280.81,506c3-.05,6.16,3.13,8.22,4.71C288.85,508,282.69,504.85,280.81,506Z" transform="translate(-34.22 -18.88)"/><path class="cls-1" d="M266.59,498.54c-2.13-3.26,1.51-1.63-.15-4-5.26-5.48-11.55-9.39-15.83-9.66.84,2.58,1.09,8.15-2.2,8.31,10.13,5.08,18,1.51,20.38,9.67l10.78-1.25C272.35,495.78,271.74,502.35,266.59,498.54Z" transform="translate(-34.22 -18.88)"/><path class="cls-1" d="M280.9,522.88l-4.31-5.35c.16,2.72-3.94.6-7-.47C269,522.56,277.81,521.35,280.9,522.88Z" transform="translate(-34.22 -18.88)"/><polygon class="cls-1" points="178.9 446.54 167.92 439.76 171.19 442.56 178.9 446.54"/><polygon class="cls-1" points="172.93 440.13 173.32 438.65 164.17 434.96 172.93 440.13"/><polygon class="cls-1" points="162.9 430.36 164.01 431.5 170.65 435.05 162.9 430.36"/><path class="cls-1" d="M176.49,431.38l.81,3.33c2.81,1.62,6.74,7.89,7.65,5C182.26,438.74,177.16,434.05,176.49,431.38Z" transform="translate(-34.22 -18.88)"/><path class="cls-1" d="M79.76,406.61c2.58,1.16,2.32-1,2.11-3.22l-5-.86C77.84,403.42,79.63,405.18,79.76,406.61Z" transform="translate(-34.22 -18.88)"/><path class="cls-1" d="M72.5,387.79c-3-2.28-6.14-4.53-9.2-7,7,11.7,10.26,11,17.45,19.5-2.09-4.61-8-8-10.73-13.91Z" transform="translate(-34.22 -18.88)"/><path class="cls-1" d="M110.08,171.58c.37,2.9,2.13,1.27-3.47,7.09a115.32,115.32,0,0,1,12.12-9.58,124.13,124.13,0,0,1,13.79-8.77c-2.42-.6,4.48-7.55.65-4.7-3.76,2.64-7.59,5-11.06,8.22l1-2.81C114.31,164.5,119.11,167.21,110.08,171.58Z" transform="translate(-34.22 -18.88)"/><path class="cls-1" d="M556.59,327.29c-1.58.14-1.13,2.19-.69,4.23C562.11,336,555.36,326.36,556.59,327.29Z" transform="translate(-34.22 -18.88)"/><path class="cls-1" d="M722.45,101.52c-2,2.15-1.56,2.36,0,1.86l7.16-3C727.23,100.89,724.82,101.13,722.45,101.52Z" transform="translate(-34.22 -18.88)"/><path class="cls-1" d="M729.62,100.35l5.06-1.46A12.41,12.41,0,0,0,729.62,100.35Z" transform="translate(-34.22 -18.88)"/><path class="cls-1" d="M760.41,57.67c1.67,7.25-.12,15.94-3.33,22.44-3.17,6.67-7.33,11.35-9.35,15.91a51.83,51.83,0,0,0,4.38-3.4,61.81,61.81,0,0,0,4.2-5,53,53,0,0,0,3.37-6,41.7,41.7,0,0,0,2.21-6.45C764.05,66.51,762.51,59.08,760.41,57.67Z" transform="translate(-34.22 -18.88)"/><path class="cls-1" d="M754.52,77.82a27.93,27.93,0,0,1,1,2.63c.42-2.15.72-4.29.94-6.33a49.94,49.94,0,0,0,0-6.12A42.92,42.92,0,0,1,754.52,77.82Z" transform="translate(-34.22 -18.88)"/><path class="cls-1" d="M749.09,83.51l1.48-.69a40.78,40.78,0,0,0,4.17-16.65A39,39,0,0,1,749.09,83.51Z" transform="translate(-34.22 -18.88)"/><path class="cls-1" d="M734.37,23a30.38,30.38,0,0,1,12.36,4.24c4.27,5.32,1.88,4.68-.43,4a6.2,6.2,0,0,0-3.1-.56c-.65.15-.58.64.71,2,1.43,1.15,2.66,1.89,3.62,2.59a13.77,13.77,0,0,0,2.39,1.63,21.74,21.74,0,0,0,3.37,1.29,6.39,6.39,0,0,1,3.58,2.71c1.34,1.83,3.17,5,4,11,1.18-1.24-1-11.18-6.25-18.07-1.33-1.62-2.64-3.25-3.94-4.59s-2.57-2.42-3.55-3.39c-2.09-1.69-3.13-3-1.88-3.61-8.46-4.79-9.16-3.18-8.43-2.18C737.54,21.24,738.89,22.93,734.37,23Z" transform="translate(-34.22 -18.88)"/><path class="cls-1" d="M735.23,642.8c-.44.51-.75,1-1.12,1.49C734.78,643.87,735.38,643.35,735.23,642.8Z" transform="translate(-34.22 -18.88)"/><path class="cls-1" d="M717.68,792.22a51.66,51.66,0,0,0,4.86,5.31A12.45,12.45,0,0,0,721,794.7C719.89,793.89,718.76,793.08,717.68,792.22Z" transform="translate(-34.22 -18.88)"/><path class="cls-1" d="M730.65,503.91c-.71-3.07-1.46-5.86-2.19-8.38A28.37,28.37,0,0,0,730.65,503.91Z" transform="translate(-34.22 -18.88)"/><path class="cls-1" d="M1008,652.55a2,2,0,0,0,1.23-.92l-.27-.23-2.17.42Z" transform="translate(-34.22 -18.88)"/><path class="cls-1" d="M892.53,871.5a70.59,70.59,0,0,0,7.51,1.77C895.75,871.89,893.62,871.45,892.53,871.5Z" transform="translate(-34.22 -18.88)"/><path class="cls-1" d="M695.46,438.51l1.62,2.52c-.41-.9-1-2.11-1.72-3.39l0,.74Z" transform="translate(-34.22 -18.88)"/><path class="cls-1" d="M694.14,750.52a9,9,0,0,0,.58,3.77C694.58,752.87,694.19,751.63,694.14,750.52Z" transform="translate(-34.22 -18.88)"/><path class="cls-1" d="M633.7,168.62a17.58,17.58,0,0,0,9.87,2.44C641.37,169.93,638.72,169.5,633.7,168.62Z" transform="translate(-34.22 -18.88)"/><path class="cls-1" d="M680.94,183.58a1.17,1.17,0,0,1-.05-.27C680.38,183.85,680.49,183.93,680.94,183.58Z" transform="translate(-34.22 -18.88)"/><path class="cls-1" d="M669.29,217.09c.08-.29.16-.55.25-.83C669,216.58,668.84,216.82,669.29,217.09Z" transform="translate(-34.22 -18.88)"/><path class="cls-1" d="M643.57,171.06c5.67,2.68,7.35,8.62,14.35,2.39l-1.32-.93c4.77,1.67,7.66-.86,11.16-.71a4.06,4.06,0,0,0-.67-1.67l-7.69-1.07C653.76,167.48,650,170.61,643.57,171.06Z" transform="translate(-34.22 -18.88)"/><path class="cls-1" d="M734.72,641.45c1.2-.09,3-5.19,0,0Z" transform="translate(-34.22 -18.88)"/><path class="cls-1" d="M746.51,571.29c-.08,2.35,0,4.69-.18,7.1A31.32,31.32,0,0,0,746.51,571.29Z" transform="translate(-34.22 -18.88)"/><path class="cls-1" d="M670.34,358.2l-.48.78C670.31,359.45,670.45,358.73,670.34,358.2Z" transform="translate(-34.22 -18.88)"/><path class="cls-1" d="M745.84,584.9l.49-6.51A29.42,29.42,0,0,0,745.84,584.9Z" transform="translate(-34.22 -18.88)"/><path class="cls-1" d="M681.54,415.16a6.66,6.66,0,0,0,.37.88A3.89,3.89,0,0,0,681.54,415.16Z" transform="translate(-34.22 -18.88)"/><path class="cls-1" d="M1075.65,108.15c4.47-.08,6.93,1.69,11,2.87,4.86-1.23.08-2.41-4.23-2.7s-8.09-.65-1.13-1.91a51.57,51.57,0,0,0-10.58.21l5.64,4.6C1084.6,110.42,1071,109.33,1075.65,108.15Z" transform="translate(-34.22 -18.88)"/><path class="cls-1" d="M962,625l1.58,1c-.68-2.21.51-2.36-5.67-5.76-6.18.64,1.28,7.9-9.05,7.29a29,29,0,0,1,7.15,2.91C952.67,626.49,957.19,625.44,962,625Z" transform="translate(-34.22 -18.88)"/><path class="cls-1" d="M956,630.39a2.44,2.44,0,0,1,.22.31,8,8,0,0,0,1.14,1.49,20,20,0,0,1,3.67,1.89A17.74,17.74,0,0,0,956,630.39Z" transform="translate(-34.22 -18.88)"/><path class="cls-1" d="M1212.85,170.11l3.94,4.26C1215.2,171.83,1214,170.68,1212.85,170.11Z" transform="translate(-34.22 -18.88)"/><path class="cls-1" d="M869.45,917.74c-2-.26-4.05-.47-5.67-.56C866.79,918,868.38,918,869.45,917.74Z" transform="translate(-34.22 -18.88)"/><path class="cls-1" d="M1052.3,667.84a45.67,45.67,0,0,0,4.31,2.77l2.91,1.22Z" transform="translate(-34.22 -18.88)"/><path class="cls-1" d="M984.25,503c-1.65,5.86,2.33-1.58,9.39-2.36l5-5.26C993.07,497.49,988.47,500.73,984.25,503Z" transform="translate(-34.22 -18.88)"/><path class="cls-1" d="M1070.28,106.27a.91.91,0,0,1-.1.41l.54-.06Z" transform="translate(-34.22 -18.88)"/><path class="cls-1" d="M1140.42,392l2.6-1.79A10.83,10.83,0,0,0,1140.42,392Z" transform="translate(-34.22 -18.88)"/><path class="cls-1" d="M991.46,646.53q11.49,4.88,22.91,10l-6.37-4C1004.18,653.33,995.42,645.2,991.46,646.53Z" transform="translate(-34.22 -18.88)"/><path class="cls-1" d="M873.05,574.26l-5.62,2.16a16.15,16.15,0,0,0-2,2.88l-1.14,2.9q-1.19,2.89-2.47,5.74l-1.31,2.85-.68,1.42c-.32.48-.19.94-1.09,1.43l-8.32,5.85L842,605.33l-2.12,1.46-1.07.73-.54.36.24.26,1.88,2.1,7.31,8.4h0a20.28,20.28,0,0,1,2.11-1.51,1.11,1.11,0,0,1,.28-.15l-.3.21-.56.4-1,.79a11.15,11.15,0,0,0-2.73,3,4.82,4.82,0,0,0,.22,5.35c2.16,3.25,7.12,6,12.53,8.33a29.63,29.63,0,0,1,4,1.86,20.07,20.07,0,0,0,3.54,2.11,43.22,43.22,0,0,0,9.21,2.78,183,183,0,0,0,18.5,3.28c5.66,3.17,10.85,5.78,15.39,7.83q3.4,1.53,6.34,2.68l2.82,1.06,2.25.76a18,18,0,0,0,8.35.38c4.82-.68,9.44-1.6,21,7.44l-.5-1.67a1100.54,1100.54,0,0,1,123.11,58.68c19.79,11.07,39,22.72,56.88,35.09s34.48,25.51,47.59,39.55l-1.26,1.28a100.12,100.12,0,0,1,11.73,18.17,44.77,44.77,0,0,1,4.72,15.78,28.6,28.6,0,0,1-.23,6.43c-.17,1.06-.4,2.14-.69,3.26a2.4,2.4,0,0,1-.14.48.19.19,0,0,0,0,.08.93.93,0,0,1-.09.2c0,.08-.09.08-.09.08s-.2.3-.43.68l-.69,1.1-3,4.17a92.31,92.31,0,0,1-6.76,7.78c-19.27,19.91-47.91,31-77.55,36.23-29.88,5.2-61.32,5.26-92.72,2.11a541.19,541.19,0,0,1-94.23-18.31c-12-1.44-5.78,4.73-16.33,4-4.36-1.46-14.31-4.31-13.83-6.7,8.73,1.39,4.41-2.19,7.49-2.22-14.11-4-31.35-13-44.33-14.88l9.55,6.85c-5.14-.48-12.47-4.2-16.75-6.08,2.24-.8-3.14-6.53.78-5.78-13.9-1.44-18.69-4.48-22.74-7.75s-7.41-6.89-18.4-10.51c-3.13,2.1-11.73,1.19-21.89-1.13s-21.79-6.19-31-9.39c-2.7-2.38-5.39-4.74-8-7.2,11.48,7.56,1.65-4.26,15.84,5-11.27-9-23.24-13.92-33-23.11,1.22,3-.31,4.45-4.77,1.61-5.79-6-4.46-9.3-10.74-15.88l7.44,4.63a15,15,0,0,0-5.77-6.31,49.94,49.94,0,0,1-6.23-4.71c.1-1.62-1.44-5.06-2.66-8a10.06,10.06,0,0,1-1.09-3.84c-.05-1,.2-1.63,1-1.68-.94-.76-1.79-1.51-2.57-2.24A16.28,16.28,0,0,1,695.4,759l-1.39-2a16.38,16.38,0,0,1-.87-2l-.87-2c-.24-.69-.34-1.39-.6-2.12-.65-1.47-.82-3.1-1.61-5.18-.77,4.49-1.68,4.35-2.42,2.65-.38-.82-.9-1.94-1.28-2.84s-.68-1.56-1.17-1.27l0,1.56.26,1.51.44,3,.86,2.9a12.56,12.56,0,0,0,1,2.89,10.06,10.06,0,0,1-.48-2.78c-.06-.76-.12-1.38-.16-1.89-.09-1-.14-1.5,0-1.66s.43.78,1,2.27a19.69,19.69,0,0,0,.89,2.43c.47.83.94,1.64,1.41,2.3.84,1.33,2,2,2.74,1.2.91,4.09-1.64,2.67-3.81,1.28-.9-.68-1.73-1.3-2-.89s-.13,1.9,1.75,5.28a36.79,36.79,0,0,1-5.83-18.33c0-1.35,0-2.71-.06-4.15.1-1.47.25-3,.3-4.74s.5-3.63.69-5.78c.37-2.16.82-4.58,1.37-7.35-3.54,12.76-1.57-3.63-5,2.64a38.15,38.15,0,0,1,3-7.6c.65-1.14.94-1.15,1.16-.76.43.79.63,3.07,2.75,1.33a64.88,64.88,0,0,1,5.42-9.59A32.07,32.07,0,0,0,697,698.75c9.2-13,1.16,4.13,6.62-1.72-.45,3.51-6.79,12.38-10.73,20.53s-5.21,15.2-.65,15.22a22.48,22.48,0,0,0-.61,4.71c0,1.61.3,3.14.44,4.69.81,3,1.32,5.42,2.07,8.34,0-5.73,3-10.52,4.9-20.91l-4.2-3c3-7.56,1.34-11.47,4.78-17.07-.48,4,4.16-.15,7.84-7.11-1.74,1.44-3.13,4.2-3.39,2.88,7-12.68,5.68-16.79,14.43-33.2-8.9,12.19-11.76,13.52-20.49,23.8-.91-5.57,4.55-8.61,8.53-15.89-.27,1.38-1.1,2.91.71,1.34l3.27-8.67c10.94-15.24,2.79,5.66,12.19-6.83,7.9-7.86,6.18-14.51,11.4-21.56a15.69,15.69,0,0,0-1.5,1.06c.9-1.77,1.58-3,2.11-3.9-.1,0-.19.06-.27,0,4.12-10.19,8.48-21.67,6.8-25.91.72-.34,1.34-2.78,1.8-5.58a76.24,76.24,0,0,0,.48-8.06c.3-3.23,0-8.88.36-14.61a57.37,57.37,0,0,1,.68-8.71,33.24,33.24,0,0,1,1.9-8c0,.25,0,.5,0,.73,0-1.82.1-3.59.14-5.29s-.09-3.31-.14-4.83c-.08-3,0-5.83,0-7.9-.06-4.11.29-6.21,1.2-4.88-.37-3.76-.83-7.52-1.46-11.25s-1.18-7.48-2-11.18l3.78,1.25c-2.85-10.07-5.12-14.15-7.13-17.38-2.24-3.11-4.25-5.46-8.33-10.9-1.57-7.19-5.5-16.14-9.78-23.93A124.54,124.54,0,0,0,711,457.26a47.86,47.86,0,0,0-3.89-6.31c1,2.53,2,5,3,7.56-7.41-12.49-7.94-9.63-13-17.48.82,1.86.82,2.22-1.62-2.52l-2.75-4.63c.54.13,1.64,1.9,2.65,3.76l-.06-2.24c-3.41-12-11.11-12.72-16.17-23.56a31.44,31.44,0,0,1,2.41,3.32c-1.36-3.11-2.23-7.47-3.08-11s-1.73-6.31-3.45-6.57c-.23-1.49-1.76-3.05-3.09-4.57-.35-1.45-.86-2.88-1.08-4.3.36,1.72.83,3.09,1,4.25-1.93-2-3.82-4-3.25-4.62a51.41,51.41,0,0,1-2.17-14.53,85.84,85.84,0,0,0,.07-9.4,19.12,19.12,0,0,1,1.78-2.07c.8-5.16,1.95-4.87,2-4.13,1.23-1.92,2.17-3.72,3.27-5.49.5-.88,1-1.75,1.37-2.63.54-1.13,1.09-2.35,1.58-3.52a82.06,82.06,0,0,0,4.79-14.49c.6-2.65,1.3-5,1.84-8s1-6.24,1.5-9.54c.55-7.19.76-15.23-1.49-24.12-2.26-2.4-2.24-.29-2,2.6s.6,6.71-.08,7.41a109.64,109.64,0,0,0-6.6-11.94l-1.89-2.87c-.52-.89-1-1.77-1.53-2.62-1-1.73-1.52-3.47-2.24-4.87a90.17,90.17,0,0,1,2.31-10,37.29,37.29,0,0,1,2.1-6c.88-2,1.49-4,2.53-5.82a54.17,54.17,0,0,1,5.41-8.68c1.71-1.81,3-2.26,3.64-.56,6.85-17.33-4.64,4.14-2.81-5.42l.93-2a56.5,56.5,0,0,1-4.38,7.57,34.5,34.5,0,0,1-4.11,5.33c-1.38.24-1.05-3.82,0-8.61A74.9,74.9,0,0,1,679,231.7L680.9,237a76.17,76.17,0,0,0,2.24-10.1,21.18,21.18,0,0,0-.18-6.29c-.62-3.55-1.79-6.64-1.09-12.82,3.37-5.81,5-7,6.39-6.69s2.43,2.17,4.6.91a75.15,75.15,0,0,0,3.5-17.49l2.7-.65a27.45,27.45,0,0,0-12.75-24.48c5.2,1.61,1.4-2.09-2.87-4.58-2.12-1.23-4.26-2.24-4.86-3s.41-1.43,4.66-1.11c-4-1.91-7.42-1.12-9.89-.61s-4.22.9-6.16-1.36c-6.52,3,7.58,2,11.2,4.28.55,2.62-3.87,2.05-9.7,1.77l-9.09-.4a57.63,57.63,0,0,0-7.13.12c-.46-2.6,5-2.62-3.54-4.95a6.93,6.93,0,0,1-4.81,1.42c-2-.07-4.32-1.08-4.92-2.9-.59,1.44-2.13.61-2.24-.46-.3-.89.26-3.68.89-6-.86,2.63-1.35,4.77-1.79,6.11s-.47,3.13-2.28,2.64c-2.58-2.69-3.6-8.75,1.14-19.76a56.42,56.42,0,0,0-3.75,7.5c-.53-6.11,2-10.23,4.92-14s6.55-7.58,9.61-14.14c-1.68,6.26-3.5,9.56-4.06,15.35,1.68-6.66,6.45-19,11.21-28.7,3.19-2.37,6.34-4.78,9.6-6.94C661.84,87,670.1,79,668.26,77c5.12-5,3.88-2,1.5,2.47s-5.58,10.93-5.27,12.23A46.88,46.88,0,0,0,673.2,77.8c1.55-3.38,3.24-6.73,10.23-11.2l-1.94,6.32c1.89-1.94,4.33-5.47,6.64-8.12s4.32-4.72,5-4.37c-.56-.84-2.25,1.43-4.62,3.83-.56-3.55,3.24-9.16,7-13.64,3.64-4.71,7.32-8.32,5.08-10.68-2.11,1.45-4.33,2.74-6.38,4.36,4.35-4.31,8-8.5,11.84-11.79s8-5.64,12.7-5.8c1.79-.08,2.48.56,2.35,1.07S720.11,29,719,30s-2.52,1.9-3.83,2.84a37.45,37.45,0,0,0-3.21,3,24.24,24.24,0,0,0,5.28-3.16,31.49,31.49,0,0,0,3.23-3.54c2.11-2.07,4.81-5,12.09-4-3.67-.94-5.31-1.45-5.34-2.47s1.56-2,4.2-2.81c-4.8-.42-11.84-.15-16.57,1.79a18.12,18.12,0,0,0-5.59,2.58c-1.14.82-1.47,1.44-.57,1.76l2.91-.66c-.21,2-4.09,4.27-5.61,6.19-9.31,5.68-5.56,0-7.93.12-7.88,5.12-7.3,6.88-6.6,8.43s1.54,3.07-4.69,8.48l-2.21.56c-2.42,3.53-5.77,7.51-8.16,11.5s-4.2,7.42-3.63,9.74c-7.23,2.77-10.4,16.31-16.52,21.42-3.52-2.29.72-8.24,6.21-14.87S675,63.45,676.8,58.07c-6.92,5.37.68-7.24,2.47-11.44A225.29,225.29,0,0,0,663,71.29c-2.21.84-10,4.85-10.86,11.31l1.44-1.71c-5.76,10.11-1.49,9.91-7.64,17.44-1.37.8-.77-2.71-.76-3.72-5.44,7.29-2.62,7.78-5.14,13.56-5.13,7.67-.34-6.26-4.88,0a43.38,43.38,0,0,1-5.78,13.26c-2.23,3.7-4.73,7.19-6.14,12.94,1.38-.8,1.59,1.71,1.79,5.59a45.83,45.83,0,0,0,.81,6.87,19.24,19.24,0,0,0,3,7.15c3,3.9,6.35,4.42,7.38,4,.55-.21.63-.69.18-1.49s-1.46-2-2.44-3.95c2.27,1.88,5.19,2.4,8.13,2.56a53.32,53.32,0,0,0,9.11-.51c2.81,1.55-.41,3.28-3.93,5s-7.61,3-5.06,5.85a27.3,27.3,0,0,1-8.78-3.36,17.53,17.53,0,0,1-7.56-10.1c-.51.82-.46,2.44.29,4.56a15.28,15.28,0,0,0,4.61,6.16c4.39,3.37,9.69,4.15,14.53,4.33s9.68-.19,13.89.08a16.52,16.52,0,0,1,4.94.87,5.73,5.73,0,0,1,3,2.18,26.64,26.64,0,0,1,5.57,1,10.55,10.55,0,0,1,6.22,6.73,49.3,49.3,0,0,0,3.7-6.12,9.06,9.06,0,0,1,.74,8.32,8.36,8.36,0,0,1-2.38,3.48,20.39,20.39,0,0,1-1.56,9.95,5.89,5.89,0,0,1-.85-3.77c-2,2.3-2.76,3.29-2.92,4.16s.31,1.48.81,2.28a7.9,7.9,0,0,1-.49,4.11c-.64,1.78-1.33,3.16-2.7,6.27l.28-3a20.87,20.87,0,0,0-.07-2.17c-.16.63-.32,1.3-.48,1.95-.28.94-.53,1.86-.72,2.7-.4,1.67-.57,3-.26,3.44a54.27,54.27,0,0,0-2.44,6.77,30.21,30.21,0,0,0,9.91-9.95,261.4,261.4,0,0,0-13,27l-2.85,6.55c-.86,2.28-1.74,4.54-2.67,6.8-2,4.35-3.6,9.34-5.64,14.46-1.27-1-1.13-10.77-1.85-8.07a64.6,64.6,0,0,0-1.62,8.32,57.44,57.44,0,0,0,.16,8.32,17.65,17.65,0,0,0,1.41,5.87c.6,1.35,1.2,1.92,1.7,1.57.18,1.42.33,2.68.46,3.81s.49,2.15.71,3.09a19.51,19.51,0,0,0-.63,4.95,24.81,24.81,0,0,0,1.43,6.85,11.59,11.59,0,0,0,.38,2.44c.13.51.3,1.09.51,1.75.12.4.25.85.4,1.37,2.2-.06,3.81,2.68,4.27,6.06a35.11,35.11,0,0,1,0,4.92,10.59,10.59,0,0,0,0,3.92,29.61,29.61,0,0,0,1.24-5.05c0-1.67.34-3.47-.14-5.19,3.17,4.35,4.88,11.76,1.16,16.09.76-6.6-1.27-3.61-2.79-1.59-.78,1-1.44,1.86-1.63,1.33a4.84,4.84,0,0,1,.11-2,46.27,46.27,0,0,0,.79-4.58c-8,9.43,1.92,7.56-5.09,20.13L655,337.42l-1.51,2.41c-1,1.64-2.07,3.2-3,5-1.12-1.51.5-6.35,1.85-10.09,1.09-3.08,2.23-5.62,1.35-4.93l-2.14,6.26a43.35,43.35,0,0,1,2-7.81c.5-1.58,1.21-3.34,1.75-5.11l1.45-5.43c1.86-7.33,1.31-11.29-1.73-13.9a8.82,8.82,0,0,1,.4,1.71,4.54,4.54,0,0,1,.08,1.52c-.05.51.07,1,0,1.48l-.26,1.45a14,14,0,0,1-.48,1.82l-.6,2c-.11.54-.65,1.72-1,2.62L652,319.31a37,37,0,0,1-1.73,6.29l-2.25,6.66a122.6,122.6,0,0,0-6.22,20.42A89.17,89.17,0,0,0,644.46,399c4.53,13.79,10.88,24.05,16.84,32.82a157.51,157.51,0,0,0,17.83,21.5l-.85-1.12c.54.28,1.11.12,2.21-.3l.27,1.78,5.25,3.89c2,8.18,8.83,20.18,12.25,31.67-1.86-7.47-2-7.47-.54-9.53,3-.63,4.74-.48,8.84,10-1.69,1.33-4.64-4.64-2.44,3.48-.93-4.32,1.87-1.91,4.15,2.27.79,3.14,2,7.17,2.88,10.48s1.18,6.05.29,6.61c-1.53-2.32-1.67-4.8-2.15-6.71-1.45-2.29,2.49,11.48-2,4.66,1.49,3.22,2.94,6.47,4.23,9.81.46,6.66-3.79-2.71-4,.15,3.56,7.9,6.55,13.84,9.58,19.79,1.4,3,2.78,6,4.08,9.32a75,75,0,0,1,3.1,11c-1.12-.58-5.57.06-4.27,0-.06,5.89,1.54,11.84,2.56,18.53.25,1.69.5,3.39.75,5.11s.22,3.48.31,5.25a42.59,42.59,0,0,1-.85,10.63c-.83-2.46.9-7.38.72-11.71-3.79,20.81-12.46,38.44-22.84,55.1-5.2,8.36-10.86,16.5-16.85,25s-12.37,17.26-18.8,27.9c-.61,4.8-1,9.83-1.26,14.75a88.89,88.89,0,0,0-7.12,12.46A85.4,85.4,0,0,0,653.14,747a82.74,82.74,0,0,0,3.52,23.2,96.13,96.13,0,0,0,18.55,33.6c14.56,17.06,30.59,28.58,48.21,39.77,11,7,5,7.7,9.53,12.47a102.27,102.27,0,0,0,28.2,13.4c8.05,2.54,16,4.64,28,9.67-3.75,0-10.82,1.78-.66,6.91,2.41-.61,4.4-2.37,10.57,1.51l-3.79.09c5.2,5,11.61,5.44,23.7,11.57a164.26,164.26,0,0,0,63.58,12.27c19.52,6.5-3.25,5.18.21,7.47-13.46-6.34-9.86-2.09-13.29-1.22,7.7.91,16.78,2.68,19.81,7.66,10.38,2.78,15,4.28,25.77,4.33-5.41,0-9.43-3.33-4.29-3.76,8.2,3.71,30.12,7.19,28.19,11.74,24.88,4.95,51.41,9.34,78.75,11.62s55.47,2.5,83.22-1.59c9.08-3.91-7.17,0-2.22-2.49,6.6-2.6,9.28-2.63,11.68-2.57s4.48.37,9.69-2.15l-4.09,3.64c8.12-1.47,16.31-4.69,24.17-8.73a261.71,261.71,0,0,0,22.45-13.68c-1.57,4.18,13.14-3.88,1.19,4.14,3.61-2.09,8.77-1,13.8-.64,5,.56,9.9.37,12.25-2.76a140.07,140.07,0,0,1-13.26-6c0-1.2,10.13-7,8.78-7.18,7.09-2,15.89-5.85,19.86-9.82,1.84.33.12,2.77-2.8,5.79a90.38,90.38,0,0,1-10.18,8.31c.36,1.31,1.91,1.23,3.94.49a57.5,57.5,0,0,0,6.68-3.76c4.36-2.89,7.8-5.29,4.79.72,12.09-12.73-3.12-.38,3.17-9.18l5.49-5.09,5.27-5.56c-2.9,2.67-5.74,5.37-8.76,7.66a48.6,48.6,0,0,0,4.56-7.3c1.21-2.3,2.34-4.37,3.46-6.65a70.6,70.6,0,0,1,4.14-7c.42-.63.86-1.28,1.31-2l2-3,2.35-3.33,1.92-4.13c.39-2.26.73-4.67.93-6.85.12-1.89.18-3.77.19-5.66a89.72,89.72,0,0,0-.63-11.17c1.85-.86,2.34-5,2-10.13s-1.62-11.2-2.39-16.57c1.22,2,2.36,4.06,3.45,6.27-1.17-7.51-2.48-12.37-3.47-16.59s-1.87-7.71-3-12c5.93,5.47,3.87,12.24,7.62,14.46a120.5,120.5,0,0,0-4.48-15.68c-1.78,1.07-7-6.46-3.75,3.85-4.38-5.26-8.12-8.49-12.69-13.55s-10.09-11.72-19.07-22c-3-6-.27-4.37,3.11-1.84s7.3,6.07,6.8,2.55c-9.12-12.09-16.9-15.78-23.4-18.26s-12-3.42-17.9-8.43c-7.27-6.79-11.21-9-15.24-11a130,130,0,0,1-16.27-9c6.26.84-10.07-10-12.12-14.13l7.58,1.42c-5.3-2.37-9.7-6.24-7.45-7.18-.48,3.84-22.73-9.58-34.89-13.88l.91,4.05c-9.33-3.85-22.45-8.31-31.78-13.73-14.61-5.89-12.25-1.64-24.31-3.42-5.22-5.52-3.57-8.46-.48-10.87,3.37,3.3,10.18,5.38,16.18,9.31,18.92,6,35.25,6.81,52.6,18.16,10.51-2.84-12.37-5.93-20.2-12.87.41-.3,1.1-.12,1.79.16a13.62,13.62,0,0,1-2.12-1.35c6.8,2.43,17.72,7,20.87,4.3-11.13-5.16-10.48,2.88-22.83-7.22-10.69-3.08-16.92-12.79-22.88-16.22-7.64-.42-9.79,5.25-26-3.35l8.54-.87c-18.76-8.51-10.66,2.06-28-5.65,6,3.11-7.11,1.56,4.46,6.65-6.36-.26-19.09-5.17-28.22-10.19-2.64-.36-.91,1.21-1.76,2.45,9.63,7.14,17.33,4,24.65,11.77l8.57-1.35c9.18,5.87,9,9.91,2.61,9.05,2.76,1,5.33,1.46,7.07,3.13-.43,7.44-10.81-7.55-15.88-3.25l6.94,2.49c1.61,5.63-17-3.1-25.69-7-9.34-6.19-18.29-10.56-18.1-14l13.82,4c-6.25-5.41-17.58-5.41-25.38-8.56a6.59,6.59,0,0,0-1.93-1.84,1.42,1.42,0,0,1,.4,1.13,12.4,12.4,0,0,1-4.07-3c-6.86-2.8-17.5-4.6-23.68-8l.08,3.17L935,626.1c6.31,2.41,14.42,7.38,9.09,7.75-14.56-3.19-16.72-10-18.21-13.23a4,4,0,0,1,3.33-.86,25.79,25.79,0,0,1,5.43,2c3.9,1.82,8.19,4.21,12,4.81-1.63-3-5.24-4.46-10.2-6.18l-4-1.38c-1.34-.46-3.1-1.12-3.88-1.45a26.42,26.42,0,0,1-6-3.34c3.29-1.46,5.35-.7,7.56.14l2.63,1a23.51,23.51,0,0,0,2.65.75,5.11,5.11,0,0,0,4.21-.51,53,53,0,0,0-7.61-2.71,7.47,7.47,0,0,0-2.17-.39l-1.61-.09a16,16,0,0,1-7.58-2.07c2.86-1.43,8.39.28,9.14-2.55a23.46,23.46,0,0,1-1.93-2.17c3.27,1,3.4-.57,3.83-2.16s1.28-3.16,2.12-3.5c0-1.05-.41-.15-1.29.46s-2.1,1-1.33-.42a19.54,19.54,0,0,0-2.5,3.42,5,5,0,0,1-4.51,2.57A22.82,22.82,0,0,1,922,603.7c.78-1,3.41-1.47,5.33-2.15a9.7,9.7,0,0,0,4.11-2.26,22.28,22.28,0,0,1-3.55.56c-2.22.79-1.91,1.66-5.55,2.56.18-.65-1.8-.29-5.12.18l-5.69.74c-1.88.3-5,.17-5,.87h0a1.42,1.42,0,0,1-.87-.91c2.54-3,5.12-5.3,8.32-6.14-.24-3.08,2.75-7.47,6.47-11.63,1.74-2.12,4.22-4.44,6.47-6.88,3.27-2.92,6.56-6.16,9.45-9.12-7.78,8.43,2.35,4.19,8.53,3-10.06,6.95-8.09,11.23-6.25,13.37,5.77-4.35,8.09-11.11,4.35-10.57,11.2-4.61,6-7.37,16.64-9.84,6.71-1.94-1.47,5.91,1.27,6.33,11.7-6.22,1.19-7,14.44-12.81-.51.94-1.63,1.73-.31,2,7.33-2.76,14.26-8.71,15-11.63,9.55,1.76,21.27-11.68,21.71-5.47,16.9-10.65-3.67-1.58-.91-5.31,6.24-6.09,20.1-11.25,24.53-12.72-4.23,2.48-7.62,6.13-12.07,7.54l5.08,1.76c22.72-9.46,10.47-15.94,32.35-25.16-9.78,8.44-2.35,4.94-6.56,10.75,2.88-2.73,19.42-11.92,8.47-8.56,7.87-4.49,13.45-7.41,19-10.27,6.11-6,12.91-12.06,15.54-17.24a127.68,127.68,0,0,1,25.09-13.27c19.8-19.86,41.17-33.39,59.84-57.23l-1.62,1.4c16.06-16.09-9.9,3.23,6.38-13.91.72,6.17,11.42-8,18.06-11.9,10.3-10.21,18-20.63,25.15-31l5.46-7.67c1.88-2.63,4-6.17,6.08-9.2l3.17-4.74q1.41-2.66,2.87-5.34l3-5.44c.5-.93,1.06-1.82,1.53-2.79l1.33-3c.65.65,1.11,3.68-2,9.83l2.4-4.4c.77-1.46,1.29-3.15,1.92-4.7q1.8-4.75,3.38-9.44c.93-3.18,1.48-6.5,2.15-9.7a59.27,59.27,0,0,0,1.36-9.66q.32-4.85.52-9.64c.11-3.19-.27-6.3-.43-9.45-.2-6.4-1.5-12.35-2.54-18.61l.69.93c-2.52-20.39-10.51-37.11-20-50.91-9.67-13.83-21-25.26-33.92-35.88,2.38,1.27,3.8.32,5.73,1.26A118.46,118.46,0,0,0,1202.19,160c-3.89-3.14-7.91-5.88-12-8.6-7.91-5.64-16.26-8.89-21.72-9.6-7-7-10.14-7.54-13.53-8.84a40.67,40.67,0,0,1-6.28-2.66c-1.34-.7-2.89-1.59-4.73-2.76s-4.07-2.26-6.66-3.84c-1-1.31,2.39,0,3.9.36a130.73,130.73,0,0,0-14.39-6.56c-4.65-1.74-9.44-2.83-15-4.67a72.92,72.92,0,0,0-16.13-.6c-4.63.28-8.7.42-12.87.88-8.35,1.06-17,.9-31.18,0-1.42-6.89,17.6-1.5,18.5-6.46-5.86.49-10.84,2.13-18.79.28,4.81-2.61,1-1.68,4.39-4.12-3-.84-9.33.46-14.62,2.88-5.31,2.23-9.74,4.56-9.7,4.23-.26,1.35,1.84,1.94,7.45,1.44-6.47,4.37-27.88,2.26-41.18,6.91a50.33,50.33,0,0,1,10.21-.67c3.45.32,5.7,1.19,3.28,3.12-18.2,1.44-23.22,9.35-34.83,15.17-16.67,1.06,10.84-8.65,7.12-12.62-3-1-10.33-3.1-3.67-6.71a68.55,68.55,0,0,0-19.76,6.77c-5.9,2.93-11.55,5.9-17.8,8.91l0-1.43c-18.06,6.84-34.76,21.13-50,25.76,2.67-.91,5.42-1.58,8.14-2.34-2.62,2-11.31,6.14-15.06,11.18-.24-2.36-12,1.68-8.11-2.43-2.46,5.47-11.62,11.7-20.61,18.52-4.48,3.44-9,6.77-12.7,10.14s-6.52,6.6-7.81,9.43c-5,1.3-2.8-3.54-2.17-5.86,10.36-6.37,14.4-7.25,18.72-13.19-8.58,5.38-15.46,8-14.83,5.71-6.78,9.52-25.74,25.18-27.68,32.3-6.9,2.63-13.11,6-12.75,1.24-23.33,21.91,17.28-.19-10.07,22.2-14,7.62,9.65-14.39-7.9-.75l2.85-3.2c-17,2.82-5.34,13-18.94,25.07-4.5-2.49,7.57-11.67-3.73-6-11.71,12.76-12.83,23.94-25.38,35l.59-3.64c-7.31,8.19-22,23.55-28.66,32.65-1-.31.16-1.46,1.33-3.31-7.06,7.36-7.86,9.73-8.63,11.33s-1.35,2.73-7.44,8.65L690.29,345c6.1-6,17.26-17.5,22.36-27.61-2.47,5.17,1.16,3.1,5.26.71s8.86-4.87,8.45-1.33l.31-2.85C748.7,299,773.37,276,800,257.31a72.16,72.16,0,0,1,10.37-10.9,127,127,0,0,1,11-7.77c3.69-2.47,7.53-4.72,11.43-7.41a113.57,113.57,0,0,0,12-9.72c.15-3.63.89-4.48,3.46-5.87A110.72,110.72,0,0,0,863,206.79c-8.11,6,.83,4.76,6.39,2.2,2.46-3.4,6.07-6.11,9.7-8.82,4-.18,25.9-6.81,32.2-14.1,10.6-2.95-1.74,3-3.5,5.16,5,1,7.35-6.16,11.32-5.78,0,0,0,.69-.91,1.48,15.19-7.41,24.92-9.52,41.27-14.62,0-3.11,3.9-4.92,8.67-6.5l7.4-2.34a29.29,29.29,0,0,0,6.48-2.41c-2,2.6,9.69-.35,14.56,0l8.33-6.13a14.52,14.52,0,0,1,5.73-2.33,22.74,22.74,0,0,1,5.21.23,27.63,27.63,0,0,0,13-.62c-.95-.33-1.9-.51-2.86-.77,4.17-1.45,11.92-1.2,19.57-.63,7.65,1.23,15.18,2.95,19.17,4.84,19.29-1.81,36.45,1,52,5.69,7.64,3,15.16,5.39,22,9.47,3.48,1.89,6.94,3.72,10.33,5.7l9.82,6.77,4.89,3.39c1.61,1.15,3.12,2.57,4.7,3.84l9.4,7.84a47.93,47.93,0,0,1,4.4,4c1.38,1.41,2.84,2.63,4.18,4.17,2.7,3,5.49,5.93,8.06,9.31,2.75,3.15,5.12,6.81,7.75,10.29,2.3,3.75,5,7.36,7.08,11.43,2.4,3.9,4.26,8.13,6.4,12.36.87,2.16,1.75,4.36,2.65,6.58s1.43,4.51,2.27,6.79c2.88,4.41,1.36-4.6,4.62-1.48.36,1,.71,1.89,1,2.72s.35,1.61.51,2.33c.29,1.44.54,2.67.79,3.88.64,2.43.44,4.76.8,8.47.92-6.74-.64-5.51.78-4.83a39.69,39.69,0,0,0-1.54-5.67,55.1,55.1,0,0,0-1.81-5.54c.19-.68.7.54,1.07-.81l-2.6-5.94a58.37,58.37,0,0,1-2.89-6.77c1.83,3.13,4.12,4.72,5.59,7.07a17.55,17.55,0,0,1,3.37,10.57c-.68-.65-.93-1.94-1.86-4.48,1.25,8.36,3.3,8.5,2.6,15,0,3.89-.19,5.27-.25,5.88s-.16.38-1,.81l-.81,5.66-1.57,5.38-.73,2.66c-.32.86-.75,1.68-1.11,2.51l-2.18,5c-.16,13-12.82,21.58-16,24.79a8,8,0,0,1,1.36-4.5c.47-.86,1-1.76,1.67-2.7l1-1.42.74-1.31c1-1.75,2-3.55,2.89-5.32a19,19,0,0,0,1-2.6,11.07,11.07,0,0,0,.11-2.61c-1.53,1.74-3.93,3-5.81,4.45l1.8,2.4-1.63,2.1-.8,1.06-1.12,1.24-4.46,5,.1-1c-.24,2.1-.54,4.26-3.34,6.19-.63.15-2,.57-1.15-.73l-5,8.75c1.62-6.59-6,5.73-7.32,2-21.06,22.24-22.91,33.65-44.53,48.83,4-1.74-2.76,10.77-9.18,15.78-3.92,2.53-5.22,2.67-3.78-.55-2.26,3-4.53,6-6.89,8.82-12.86,4.19-20.8,15.71-37,25.84l0-2C1081.47,444,1076,450,1067,455.52l.19-4c-11.58,5.3-5.26,11.8-18.18,17.73,1.48,3.22,9.85-.08,12.38,2.08-4.28-1.21-17.61,6.48-13.56,6.89-11.74,8.89-8.59,5.1-9.95,5-2.15,2.1-4.29,4.24-6.49,6.28-8.86,4.87-4.48-2.68-2-6.38-6.75,8.19-16.67,10.73-26.35,15.14l3.28-3.52-12.69,6c-7.23,6.87-18.78,12.93-30.09,17.21l5.91-8.24c-8.39,1.63-3.37,3.54-5.11,5.32-11.26,8.41-14.94,6.88-22.34,8-8.91,7.72-19.36,11.72-29.49,16.8l-1.89.92-.94.47-.47.23-.73.46-5.87,3.86-5.81,4a46.22,46.22,0,0,0-5.66,4.42c-3.68,3.23-7.23,6.53-10.47,9.85A68.46,68.46,0,0,0,873.05,574.26ZM667.46,362.09c-.3.54-.68,1.09-.94,1.65C666.71,359.43,666.61,356.86,667.46,362.09Zm49.07,109.07c-9.14-13.13-5.21-9.78-4.88-11.67,7.08,14.48,12.27,21.86,16.81,36a9.42,9.42,0,0,1,.82-4.63c2.19,5.48,3.43,11.54,2.3,14.36-1.51-1.24-3.18-4.48-4.75-8.6-1.72-4-3.36-9-5-13.34C718.56,474.45,715.78,467.31,716.53,471.16ZM676.86,197a5.94,5.94,0,0,1,.49,1.31l0,.05C677.2,197.87,677,197.4,676.86,197Zm-19.73,78.91a13.84,13.84,0,0,0-.73,7.51C656.92,281.12,657.59,279.19,657.13,275.88Zm10.38,158.77c.67,4.35,5.57,10.79,9.07,15.34C675.23,447.56,672.9,443.18,667.51,434.65Zm507.06,477.57c-3.59,3.06-10.58,8.8-3.13,6.48,1.36-1.73,3.89-2.84,6.33-4s4.7-2.73,5.53-4.75a6,6,0,0,1,.77-.24C1179.47,910.83,1175.8,911.7,1174.57,912.22ZM952.1,641.49c1.19-1.61,4.59-2.54,3.12-4.66l1,.56c-.8-1-1.48-1.84-.62-2-3-1.55-6.16-3.23-8.49-3.51C944.53,637.64,937.74,636.14,952.1,641.49Z" transform="translate(-34.22 -18.88)"/><path class="cls-1" d="M1085.73,672.77c-1.48-.68-2.6-1.31-3.54-1.69C1083.15,671.58,1084.25,672.09,1085.73,672.77Z" transform="translate(-34.22 -18.88)"/><path class="cls-1" d="M947.78,632.18c-.38.28,3.14,2.26,7.44,4.65C954.5,635.73,952.48,634.28,947.78,632.18Z" transform="translate(-34.22 -18.88)"/><path class="cls-1" d="M713.9,41.71a28.67,28.67,0,0,0-3.06,2.23,69.16,69.16,0,0,1,7-1.31c2.52-1.32,4.48-2.71,6-3.43a33.44,33.44,0,0,0,3.49-2.42c1.72-1.33,2.66-3.06,4.32-4.35a28.19,28.19,0,0,0-3.88.82,20.83,20.83,0,0,0-3.52,1c-1.16.39-2.29.58-3.41,1l-3.41,1.26a69.82,69.82,0,0,0-7.27,3.3c-2.51,1.66-5.4,3.12-8.35,5.76a37.9,37.9,0,0,1,6.08-2.25A32.81,32.81,0,0,1,713.9,41.71Z" transform="translate(-34.22 -18.88)"/><path class="cls-1" d="M700.44,25.74c-.84,0-2.31.09-3.85.29a12.33,12.33,0,0,0-4,1.34l-1.05,3.05A75.58,75.58,0,0,1,700.44,25.74Z" transform="translate(-34.22 -18.88)"/><path class="cls-1" d="M660.31,182.71c-3.79-.7-8.42-1.36-13.26-2.39-2.48.57.77,2.17,4.53,3S659.54,184.17,660.31,182.71Z" transform="translate(-34.22 -18.88)"/><path class="cls-1" d="M644.43,129.67c.48-2.43,1-4.92,1.63-7.41-4.33,4.78-7.46,13-5.88,15,.78-4,1.41-4.37,1.83-4.44S643,132.81,644.43,129.67Z" transform="translate(-34.22 -18.88)"/><path class="cls-1" d="M669.92,186.83c2.09-.54,1.89,1.25,1.32,2.56s-1.21,2.36.35,2.74c-.34-.63.48-2.18.62-3.72S671.77,185.68,669.92,186.83Z" transform="translate(-34.22 -18.88)"/><path class="cls-1" d="M693.83,155.5c-1-3-4.11-5.27-8.31-6.64s-9.43-2-15-2.88a37.05,37.05,0,0,1,14.07,4.6C688.63,152.73,691.62,155.21,693.83,155.5Z" transform="translate(-34.22 -18.88)"/><path class="cls-1" d="M659.93,243.33c-1-.85-.9-2.93-.27-5.69a67.92,67.92,0,0,1,3.65-9.15c-.22,2.67.19,4.69-.61,7.91,2.64-12.26,3.15-13.07,6-22.33-1.31,2-2.7,4.25-4.09,6.52s-2.6,4.77-3.81,6.81c-2.41,4.08-4.48,6.81-5.5,5.4a45,45,0,0,0,.36,11.56C656.34,247,657.61,247.4,659.93,243.33Z" transform="translate(-34.22 -18.88)"/><path class="cls-1" d="M704,181.54a51.24,51.24,0,0,0,.09-14.62,22.9,22.9,0,0,0-7.19-13.49,20.46,20.46,0,0,0,1.7,6,58.08,58.08,0,0,1,4.38,14.18A29.89,29.89,0,0,0,699.5,170c.45,6.56.75,5,1.83,3.87.46-.55,1-1,1.6-.16S704.19,176.78,704,181.54Z" transform="translate(-34.22 -18.88)"/><path class="cls-1" d="M653.88,298.44l-1.14-6.59a30.33,30.33,0,0,1-2.27-6,32.44,32.44,0,0,1-1.49-6.75c-.3-2.3-.54-4.65-.73-7,0-2.07.09-4.13.13-6.13s.06-4.09.22-5.77.32-3.27.41-4.79a37.4,37.4,0,0,0-.21-8c-.88,4.09-1.62,8.66-2.28,13.12-.16,2.57-.27,5.15-.33,7.68,0,1.26,0,2.51-.05,3.74.13,1.39.27,2.76.39,4.1a58.88,58.88,0,0,0,1.21,7.67c.65,2.41,1.34,4.65,2,6.67a53,53,0,0,0,2.25,4.85c.37.68.71,1.33,1,1.93S653.62,298.08,653.88,298.44Z" transform="translate(-34.22 -18.88)"/><path class="cls-1" d="M685.33,224.15l2.73,3.33c4.59-9.27-1.4,0-.71-3.9,1.68-2.48,3.71-6.3,4-8.87C687.06,226.12,688.42,213.75,685.33,224.15Z" transform="translate(-34.22 -18.88)"/><path class="cls-1" d="M677.63,257.76c-.25,2.09-.27,4.07-.43,6.06l-.21,2.95.22,2.58a78.41,78.41,0,0,1,5.3-7.26,34.61,34.61,0,0,1,.44-3.92,9.56,9.56,0,0,0,.11-2.11c-.1-.86-.51-.72-1.1-.21C680.8,256.84,678.93,259.32,677.63,257.76Z" transform="translate(-34.22 -18.88)"/><path class="cls-1" d="M673,271.48a12.44,12.44,0,0,0-.78,1.23l1.6,3.67a28.38,28.38,0,0,0,2,3l5.42,6.16c-1.45-2.05-2.57-3.62-3.49-4.91a19,19,0,0,1-1.64-2.63,12.2,12.2,0,0,1-1.36-2.52A28.4,28.4,0,0,1,673,271.48Z" transform="translate(-34.22 -18.88)"/><path class="cls-1" d="M707.08,510c2.31,1.15-.32-10.25,0-4.87C705.2,503.92,708.73,518.67,707.08,510Z" transform="translate(-34.22 -18.88)"/><path class="cls-1" d="M710,448.31c1.1,3,4.65,8.21,8.48,13.84s7.93,11.62,10.33,15.43c-2.62-4.71-7-12.9-10.91-19.39S710.44,447,710,448.31Z" transform="translate(-34.22 -18.88)"/><path class="cls-1" d="M730.75,480.68l-2-3.1A26,26,0,0,0,730.75,480.68Z" transform="translate(-34.22 -18.88)"/><path class="cls-1" d="M725.65,788.85a5.32,5.32,0,0,0,1.83.91Z" transform="translate(-34.22 -18.88)"/><path class="cls-1" d="M719.94,785.29c-3.05-3.6-10.13-9.06-12.11-8.77a95.4,95.4,0,0,0,8.09,6.46,57.69,57.69,0,0,0,9.73,5.87C723,787,720.89,783.23,719.94,785.29Z" transform="translate(-34.22 -18.88)"/><path class="cls-1" d="M776.11,824.4c-3.62-.59-7.69-3.65-7.27-1.34C770.32,824.86,777.79,826.75,776.11,824.4Z" transform="translate(-34.22 -18.88)"/><path class="cls-1" d="M1233.68,871.48a87.73,87.73,0,0,0,3.44-9.18c.48-1.65.67-2.43.87-3.41a21.38,21.38,0,0,0,.4-2.48c.29-2.92-.29-4-1.72-2.8-.65,3.23-1.06,5.15-1.28,6.5a14.67,14.67,0,0,0-.35,3.23C1235.07,864.75,1235.38,865.67,1233.68,871.48Z" transform="translate(-34.22 -18.88)"/><path class="cls-1" d="M1238,838.38l1.19-1.58c.64-2.64,1.17-5.36,1.59-8.11A88.42,88.42,0,0,1,1238,838.38Z" transform="translate(-34.22 -18.88)"/><path class="cls-1" d="M1218.42,767.9a8.5,8.5,0,0,1,3,2.41C1219.09,767.5,1217.06,765.33,1218.42,767.9Z" transform="translate(-34.22 -18.88)"/><path class="cls-1" d="M1222.52,771.76c-.34-.47-.76-1-1.14-1.45Z" transform="translate(-34.22 -18.88)"/><path class="cls-1" d="M1224.25,776l1.39-.23c-.71-.81-1.93-2.49-3.12-4C1223.55,773.18,1224.43,774.93,1224.25,776Z" transform="translate(-34.22 -18.88)"/><path class="cls-1" d="M1207.37,753.12c1.66,3.86,3.24,7.81,4.72,11.82,4.25,4.11,2.56,1,1-2.34s-3.15-6.84,2-3.72C1212.47,756.83,1209.92,754.92,1207.37,753.12Z" transform="translate(-34.22 -18.88)"/><path class="cls-1" d="M1180,727.91c-6.91-7.64-20.81-10.23-23-17.57-11.45-6.6-11-3.74-11-1.46s-.26,4.17-13-3.08c11.21,8.75,15.08,8.85,18.74,8.61s7-.68,16.66,8.46C1159.88,712.52,1176.21,725.9,1180,727.91Z" transform="translate(-34.22 -18.88)"/><path class="cls-1" d="M1179.52,737.86c2.45-1-6.82-9.26-10.56-10.12C1171.61,730.17,1174.6,736.91,1179.52,737.86Z" transform="translate(-34.22 -18.88)"/><polygon class="cls-1" points="1102.51 679.88 1096.51 673.88 1094.12 674.21 1102.51 679.88"/><path class="cls-1" d="M1111.39,682.22l7.7,1.25C1116.48,683.17,1106.59,677.24,1111.39,682.22Z" transform="translate(-34.22 -18.88)"/><path class="cls-1" d="M1076.25,659.3c-6-4.11-13.91-.75-.07,4.61l-3-1.78C1074.35,661.57,1067.88,655.74,1076.25,659.3Z" transform="translate(-34.22 -18.88)"/><path class="cls-1" d="M987.87,630.74c4.39,1.93,9.84,3.28,9.3,1.58l-12.5-3.65Z" transform="translate(-34.22 -18.88)"/><path class="cls-1" d="M985.31,647c2.94,5.52,11.35,4.29,18.94,9C995.43,651.39,996.66,651.3,985.31,647Z" transform="translate(-34.22 -18.88)"/><path class="cls-1" d="M975.49,619.67c3.73-.32,8.54,2.74,11.52,4.24C986.14,621.08,977.58,618.31,975.49,619.67Z" transform="translate(-34.22 -18.88)"/><path class="cls-1" d="M955.65,613.52c-3.59-3.09,1.45-1.86-1.29-4.08A62.11,62.11,0,0,0,942,603.6a39.56,39.56,0,0,0-5.64-1.46,24,24,0,0,0-2.5-.31c-.58,0-.44.31-.73.53,0,.57-.08,1.21-.12,1.81a12,12,0,0,1,.76,2.75c.22,1.81-.3,3.4-2.32,3.75,14,3.53,22.93-1.06,28.14,7l13.23-2.41C962.14,610,963.13,616.81,955.65,613.52Z" transform="translate(-34.22 -18.88)"/><path class="cls-1" d="M979.72,637.12,973.08,632c.85,2.78-4.76,1-8.81.23C964.85,637.9,975.49,635.74,979.72,637.12Z" transform="translate(-34.22 -18.88)"/><path class="cls-1" d="M914.45,602.17l.1.06a33.47,33.47,0,0,1,2.17-4.54l-1.93,1.68a14.35,14.35,0,0,0-.29,2.87Z" transform="translate(-34.22 -18.88)"/><path class="cls-1" d="M919.6,599l2.44-.36a4.53,4.53,0,0,1-1.25-2.83A18.79,18.79,0,0,0,919.6,599Z" transform="translate(-34.22 -18.88)"/><path class="cls-1" d="M925.43,595.46l-.64.3a4.57,4.57,0,0,0,.13,1.8A8,8,0,0,1,925.43,595.46Z" transform="translate(-34.22 -18.88)"/><path class="cls-1" d="M934.59,589.45c-1-.14-2.45,0-2.85-.57-.52.72-1.71,1-2.64,1.52s-1.12.83,0,1.74c-.1-.56.72-1.36,1.74-1.88a3.89,3.89,0,0,1,1.46-.45,2.22,2.22,0,0,0,.39,0l.72-.19A4.07,4.07,0,0,1,934.59,589.45Z" transform="translate(-34.22 -18.88)"/><path class="cls-1" d="M1014.64,483.86c-2.07,2.74-.09,3.06,1.92,3.4l2.78-5.67C1018.22,482.47,1015.93,484.1,1014.64,483.86Z" transform="translate(-34.22 -18.88)"/><path class="cls-1" d="M1033.85,479.62c2.93-3.37,5.9-6.64,8.74-10.07-12.06,6.65-12.53,10.6-22.86,17.21,4.94-1.35,10.14-7.6,16.1-9.93Z" transform="translate(-34.22 -18.88)"/><path class="cls-1" d="M1216.76,313.71c1.29,2.45,2.47,0-1,8,5.62-10.28,9.89-18.71,11.51-31.23-1,.88-1.41-1-2.19-2.56s-1.07-2.59-.87-.31a12.38,12.38,0,0,1-.07,3.28l-.29,3.29c-.12,1.1-.09,2.25-.3,3.35l-.78,3.27-.81-2.51C1217.54,306,1222.32,305.27,1216.76,313.71Z" transform="translate(-34.22 -18.88)"/><path class="cls-1" d="M740.65,285c.4-2.16-1.7-1.6-3.81-1C730.46,292.46,742,283.25,740.65,285Z" transform="translate(-34.22 -18.88)"/></svg>